{
    "asset" : {
        "generator" : "Khronos glTF Blender I/O v1.7.33",
        "version" : "2.0"
    },
    "scene" : 0,
    "scenes" : [
        {
            "name" : "Scene",
            "nodes" : [
                0,
                1,
                2,
                3,
                4
            ]
        }
    ],
    "nodes" : [
        {
            "mesh" : 0,
            "name" : "glass"
        },
        {
            "mesh" : 1,
            "name" : "housing"
        },
        {
            "mesh" : 2,
            "name" : "label28.5V"
        },
        {
            "mesh" : 3,
            "name" : "thing"
        },
        {
            "mesh" : 4,
            "name" : "v-1_needle"
        }
    ],
    "materials" : [
        {
            "alphaMode" : "BLEND",
            "name" : "glass",
            "pbrMetallicRoughness" : {
                "baseColorFactor" : [
                    0.6399999856948853,
                    0.6399999856948853,
                    0.6399999856948853,
                    0.23000000417232513
                ],
                "roughnessFactor" : 0.10000000149011612
            }
        },
        {
            "doubleSided" : true,
            "name" : "ac3dmat1.001",
            "pbrMetallicRoughness" : {
                "baseColorTexture" : {
                    "index" : 0
                },
                "metallicFactor" : 0,
                "roughnessFactor" : 0.5
            }
        }
    ],
    "meshes" : [
        {
            "name" : "housing.mesh.001",
            "primitives" : [
                {
                    "attributes" : {
                        "POSITION" : 0,
                        "NORMAL" : 1,
                        "TEXCOORD_0" : 2
                    },
                    "indices" : 3,
                    "material" : 0
                }
            ]
        },
        {
            "name" : "housing.mesh",
            "primitives" : [
                {
                    "attributes" : {
                        "POSITION" : 4,
                        "NORMAL" : 5,
                        "TEXCOORD_0" : 6
                    },
                    "indices" : 7,
                    "material" : 1
                }
            ]
        },
        {
            "name" : "label28.5V.mesh",
            "primitives" : [
                {
                    "attributes" : {
                        "POSITION" : 8,
                        "NORMAL" : 9,
                        "TEXCOORD_0" : 10
                    },
                    "indices" : 11,
                    "material" : 1
                }
            ]
        },
        {
            "name" : "thing.mesh",
            "primitives" : [
                {
                    "attributes" : {
                        "POSITION" : 12,
                        "NORMAL" : 13,
                        "TEXCOORD_0" : 14
                    },
                    "indices" : 15,
                    "material" : 1
                }
            ]
        },
        {
            "name" : "v-1_needle.mesh",
            "primitives" : [
                {
                    "attributes" : {
                        "POSITION" : 16,
                        "NORMAL" : 17,
                        "TEXCOORD_0" : 18
                    },
                    "indices" : 19,
                    "material" : 1
                }
            ]
        }
    ],
    "textures" : [
        {
            "sampler" : 0,
            "source" : 0
        }
    ],
    "images" : [
        {
            "mimeType" : "image/png",
            "name" : "v-1",
            "uri" : "v-1.png"
        }
    ],
    "accessors" : [
        {
            "bufferView" : 0,
            "componentType" : 5126,
            "count" : 64,
            "max" : [
                0.022989999502897263,
                0.022989999502897263,
                -0.00031999897328205407
            ],
            "min" : [
                -0.022989999502897263,
                -0.022989999502897263,
                -0.00032000101055018604
            ],
            "type" : "VEC3"
        },
        {
            "bufferView" : 1,
            "componentType" : 5126,
            "count" : 64,
            "type" : "VEC3"
        },
        {
            "bufferView" : 2,
            "componentType" : 5126,
            "count" : 64,
            "type" : "VEC2"
        },
        {
            "bufferView" : 3,
            "componentType" : 5123,
            "count" : 72,
            "type" : "SCALAR"
        },
        {
            "bufferView" : 4,
            "componentType" : 5126,
            "count" : 121,
            "max" : [
                0.024790000170469284,
                0.024790000170469284,
                1.083605316587466e-09
            ],
            "min" : [
                -0.024790000170469284,
                -0.024790000170469284,
                -0.00443999981507659
            ],
            "type" : "VEC3"
        },
        {
            "bufferView" : 5,
            "componentType" : 5126,
            "count" : 121,
            "type" : "VEC3"
        },
        {
            "bufferView" : 6,
            "componentType" : 5126,
            "count" : 121,
            "type" : "VEC2"
        },
        {
            "bufferView" : 7,
            "componentType" : 5123,
            "count" : 360,
            "type" : "SCALAR"
        },
        {
            "bufferView" : 8,
            "componentType" : 5126,
            "count" : 4,
            "max" : [
                0.020649999380111694,
                -0.00394000019878149,
                -0.0018000000854954123
            ],
            "min" : [
                0.01616000011563301,
                -0.0071299998089671135,
                -0.001800000318326056
            ],
            "type" : "VEC3"
        },
        {
            "bufferView" : 9,
            "componentType" : 5126,
            "count" : 4,
            "type" : "VEC3"
        },
        {
            "bufferView" : 10,
            "componentType" : 5126,
            "count" : 4,
            "type" : "VEC2"
        },
        {
            "bufferView" : 11,
            "componentType" : 5123,
            "count" : 6,
            "type" : "SCALAR"
        },
        {
            "bufferView" : 12,
            "componentType" : 5126,
            "count" : 17,
            "max" : [
                0.009479999542236328,
                0.009479999542236328,
                -0.0012199999764561653
            ],
            "min" : [
                -0.009479999542236328,
                -0.009479999542236328,
                -0.002060000551864505
            ],
            "type" : "VEC3"
        },
        {
            "bufferView" : 13,
            "componentType" : 5126,
            "count" : 17,
            "type" : "VEC3"
        },
        {
            "bufferView" : 14,
            "componentType" : 5126,
            "count" : 17,
            "type" : "VEC2"
        },
        {
            "bufferView" : 15,
            "componentType" : 5123,
            "count" : 48,
            "type" : "SCALAR"
        },
        {
            "bufferView" : 16,
            "componentType" : 5126,
            "count" : 7,
            "max" : [
                0.001069999998435378,
                0.0206300001591444,
                -0.003979999106377363
            ],
            "min" : [
                -0.001069999998435378,
                0.0015800001565366983,
                -0.003980000037699938
            ],
            "type" : "VEC3"
        },
        {
            "bufferView" : 17,
            "componentType" : 5126,
            "count" : 7,
            "type" : "VEC3"
        },
        {
            "bufferView" : 18,
            "componentType" : 5126,
            "count" : 7,
            "type" : "VEC2"
        },
        {
            "bufferView" : 19,
            "componentType" : 5123,
            "count" : 15,
            "type" : "SCALAR"
        }
    ],
    "bufferViews" : [
        {
            "buffer" : 0,
            "byteLength" : 768,
            "byteOffset" : 0
        },
        {
            "buffer" : 0,
            "byteLength" : 768,
            "byteOffset" : 768
        },
        {
            "buffer" : 0,
            "byteLength" : 512,
            "byteOffset" : 1536
        },
        {
            "buffer" : 0,
            "byteLength" : 144,
            "byteOffset" : 2048
        },
        {
            "buffer" : 0,
            "byteLength" : 1452,
            "byteOffset" : 2192
        },
        {
            "buffer" : 0,
            "byteLength" : 1452,
            "byteOffset" : 3644
        },
        {
            "buffer" : 0,
            "byteLength" : 968,
            "byteOffset" : 5096
        },
        {
            "buffer" : 0,
            "byteLength" : 720,
            "byteOffset" : 6064
        },
        {
            "buffer" : 0,
            "byteLength" : 48,
            "byteOffset" : 6784
        },
        {
            "buffer" : 0,
            "byteLength" : 48,
            "byteOffset" : 6832
        },
        {
            "buffer" : 0,
            "byteLength" : 32,
            "byteOffset" : 6880
        },
        {
            "buffer" : 0,
            "byteLength" : 12,
            "byteOffset" : 6912
        },
        {
            "buffer" : 0,
            "byteLength" : 204,
            "byteOffset" : 6924
        },
        {
            "buffer" : 0,
            "byteLength" : 204,
            "byteOffset" : 7128
        },
        {
            "buffer" : 0,
            "byteLength" : 136,
            "byteOffset" : 7332
        },
        {
            "buffer" : 0,
            "byteLength" : 96,
            "byteOffset" : 7468
        },
        {
            "buffer" : 0,
            "byteLength" : 84,
            "byteOffset" : 7564
        },
        {
            "buffer" : 0,
            "byteLength" : 84,
            "byteOffset" : 7648
        },
        {
            "buffer" : 0,
            "byteLength" : 56,
            "byteOffset" : 7732
        },
        {
            "buffer" : 0,
            "byteLength" : 30,
            "byteOffset" : 7788
        }
    ],
    "samplers" : [
        {
            "magFilter" : 9729,
            "minFilter" : 9987
        }
    ],
    "buffers" : [
        {
            "byteLength" : 7820,
            "uri" : "v-1.bin"
        }
    ]
}
