{
    "asset" : {
        "generator" : "Khronos glTF Blender I/O v1.7.33",
        "version" : "2.0"
    },
    "scene" : 0,
    "scenes" : [
        {
            "name" : "Scene",
            "nodes" : [
                0
            ]
        }
    ],
    "nodes" : [
        {
            "mesh" : 0,
            "name" : "switch"
        }
    ],
    "materials" : [
        {
            "name" : "switch",
            "pbrMetallicRoughness" : {
                "baseColorTexture" : {
                    "index" : 0
                },
                "metallicRoughnessTexture" : {
                    "index" : 1
                }
            }
        }
    ],
    "meshes" : [
        {
            "name" : "Sphere",
            "primitives" : [
                {
                    "attributes" : {
                        "POSITION" : 0,
                        "NORMAL" : 1,
                        "TEXCOORD_0" : 2
                    },
                    "indices" : 3,
                    "material" : 0
                }
            ]
        }
    ],
    "textures" : [
        {
            "sampler" : 0,
            "source" : 0
        },
        {
            "sampler" : 0,
            "source" : 1
        }
    ],
    "images" : [
        {
            "mimeType" : "image/png",
            "name" : "switch1",
            "uri" : "Aircraft/Su-57/Models/Cockpit/Parts/switch2.png"
        },
        {
            "mimeType" : "image/png",
            "name" : "switch1-orm",
            "uri" : "Aircraft/Su-57/Models/Cockpit/Parts/switch1-orm.png"
        }
    ],
    "accessors" : [
        {
            "bufferView" : 0,
            "componentType" : 5126,
            "count" : 736,
            "max" : [
                0.0037899999879300594,
                0.003789999056607485,
                0.020409999415278435
            ],
            "min" : [
                -0.0037899999879300594,
                -0.003790000919252634,
                -0.0028299998957663774
            ],
            "type" : "VEC3"
        },
        {
            "bufferView" : 1,
            "componentType" : 5126,
            "count" : 736,
            "type" : "VEC3"
        },
        {
            "bufferView" : 2,
            "componentType" : 5126,
            "count" : 736,
            "type" : "VEC2"
        },
        {
            "bufferView" : 3,
            "componentType" : 5123,
            "count" : 3024,
            "type" : "SCALAR"
        }
    ],
    "bufferViews" : [
        {
            "buffer" : 0,
            "byteLength" : 8832,
            "byteOffset" : 0
        },
        {
            "buffer" : 0,
            "byteLength" : 8832,
            "byteOffset" : 8832
        },
        {
            "buffer" : 0,
            "byteLength" : 5888,
            "byteOffset" : 17664
        },
        {
            "buffer" : 0,
            "byteLength" : 6048,
            "byteOffset" : 23552
        }
    ],
    "samplers" : [
        {
            "magFilter" : 9729,
            "minFilter" : 9987
        }
    ],
    "buffers" : [
        {
            "byteLength" : 29600,
            "uri" : "switch2.bin"
        }
    ]
}
