<?xml version="1.0" encoding="UTF-8" standalone="no"?>
<!-- Created with Inkscape (http://www.inkscape.org/) -->

<svg
   version="1.1"
   id="svg2"
   width="768"
   height="576"
   viewBox="0 0 768.00001 576.00001"
   sodipodi:docname="engine.svg"
   inkscape:version="1.1.2 (0a00cf5339, 2022-02-04)"
   xmlns:inkscape="http://www.inkscape.org/namespaces/inkscape"
   xmlns:sodipodi="http://sodipodi.sourceforge.net/DTD/sodipodi-0.dtd"
   xmlns="http://www.w3.org/2000/svg"
   xmlns:svg="http://www.w3.org/2000/svg">
  <defs
     id="defs6" />
  <sodipodi:namedview
     id="namedview4"
     pagecolor="#5d5d5d"
     bordercolor="#666666"
     borderopacity="1.0"
     inkscape:pageshadow="2"
     inkscape:pageopacity="0"
     inkscape:pagecheckerboard="0"
     showgrid="false"
     inkscape:zoom="0.99432123"
     inkscape:cx="486.76422"
     inkscape:cy="287.6334"
     inkscape:window-width="1920"
     inkscape:window-height="1016"
     inkscape:window-x="0"
     inkscape:window-y="0"
     inkscape:window-maximized="1"
     inkscape:current-layer="g8" />
  <g
     inkscape:groupmode="layer"
     inkscape:label="Image"
     id="g8">
    <g
       id="g962">
      <path
         style="fill:none;stroke:#00ff00;stroke-width:2;stroke-linecap:butt;stroke-linejoin:miter;stroke-miterlimit:4;stroke-dasharray:none;stroke-opacity:1"
         d="M 768,324 H 364"
         id="path3330"
         sodipodi:nodetypes="cc" />
      <path
         style="fill:none;stroke:#00fe00;stroke-width:2;stroke-linecap:butt;stroke-linejoin:miter;stroke-miterlimit:4;stroke-dasharray:none;stroke-opacity:1"
         d="M 768,70 H 364"
         id="path3505"
         sodipodi:nodetypes="cc" />
    </g>
    <path
       style="fill:#00fe00;fill-opacity:1;stroke:none;stroke-width:0.793399"
       d="m 565.59197,256.00487 c -2.21431,1.57266 -8.69606,6.39646 -9.7988,6.39646 -1.16104,0 -2.00494,-0.44454 -2.00494,-1.05618 0,-0.5809 1.79971,-2.10676 3.99933,-3.39073 2.19963,-1.28398 4.76831,-3.10723 5.70821,-4.05165 0.93988,-0.9444 1.45276,-0.16391 2.13344,0.21552 m -119.77514,-1.30268 c -0.34314,0.18753 -2.58916,-0.81099 -4.99116,-2.21872 -2.402,-1.40773 -4.36727,-3.07332 -4.36727,-3.70135 0,-0.62801 0.54625,-1.14184 1.21389,-1.14184 0.66765,0 2.91367,0.93395 4.99118,2.07545 2.10334,1.1557 3.77727,2.64496 3.77727,3.36056 0,0.70682 -0.28076,1.43847 -0.62391,1.6259 z m 104.33894,0.50524 c -0.1578,0 -0.5365,-0.227 -0.84153,-0.50447 -0.30501,-0.27747 -0.55457,-0.92941 -0.55457,-1.44873 0,-0.51934 1.75497,-1.83652 3.89993,-2.92707 2.14495,-1.09054 4.39097,-1.81138 4.99116,-1.60187 0.60019,0.20951 1.08452,0.647 1.0763,0.97222 -0.008,0.3252 -1.87556,1.69797 -4.14964,3.05061 -2.2741,1.35263 -4.26383,2.45931 -4.42165,2.45931 z m -6.72645,-9.8373 c -0.21707,0 -0.62585,-0.34052 -0.90861,-0.75671 -0.28275,-0.4162 -0.30132,-1.06993 -0.0413,-1.45274 0.26008,-0.3828 2.20101,-1.57463 4.31317,-2.6485 2.11216,-1.07388 4.1675,-1.9525 4.56739,-1.9525 0.3999,0 0.72708,0.6753 0.72708,1.5007 0,1.03937 -1.27011,2.08614 -4.13165,3.40521 -2.27238,1.04749 -4.30915,1.90454 -4.52613,1.90454 z m -92.20538,-0.76916 c -0.57191,-0.007 -2.50129,-0.77302 -4.28752,-1.70261 -1.78621,-0.9296 -3.64467,-2.26974 -4.12989,-2.97812 -0.48519,-0.70839 -0.59248,-1.5515 -0.23837,-1.87361 0.35408,-0.32211 2.68047,0.38434 5.16971,1.5699 3.03135,1.44375 4.52589,2.62467 4.52589,3.57622 0,0.78136 -0.46792,1.41506 -1.03982,1.40822 z m 86.4719,-9.06815 c -0.16768,0 -0.55448,-0.22701 -0.85953,-0.50448 -0.305,-0.27745 -0.55456,-0.93355 -0.55456,-1.45795 0,-0.52441 2.10409,-1.82975 4.67576,-2.90075 2.57168,-1.07099 4.8177,-1.94726 4.99117,-1.94726 0.17339,0 0.31541,0.67531 0.31541,1.50069 0,1.03937 -1.2701,2.08614 -4.13165,3.40521 -2.27242,1.0475 -4.26887,1.90454 -4.4366,1.90454 z m -80.64888,-0.77803 c -0.5719,-0.0118 -2.72434,-0.80296 -4.7832,-1.75829 -2.52459,-1.17144 -3.83387,-2.30064 -4.02135,-3.46818 -0.15285,-0.95217 0.0343,-1.58935 0.41594,-1.41595 0.38164,0.17341 2.65917,1.10804 5.06117,2.07697 3.01706,1.21704 4.36727,2.19839 4.36727,3.17424 0,0.77688 -0.46793,1.40293 -1.03983,1.39121 z m 74.78724,-9.05927 c -0.29897,0 -0.54362,-0.68025 -0.54362,-1.51164 0,-1.0749 1.25643,-2.06301 4.34877,-3.42004 2.39184,-1.04963 4.81871,-1.74437 5.39309,-1.54387 0.57436,0.20048 0.81964,0.89708 0.54507,1.54795 -0.27457,0.6509 -2.45683,2.02588 -4.84943,3.05553 -2.39262,1.02963 -4.59487,1.87207 -4.89388,1.87207 z m -69.7382,-0.82392 c -0.60373,-0.037 -2.86389,-0.80315 -5.02255,-1.70262 -2.15868,-0.89946 -4.13622,-2.11799 -4.39453,-2.70783 -0.25841,-0.58983 -0.17677,-1.33095 0.18144,-1.64692 0.35815,-0.31597 2.71003,0.21962 5.2264,1.19022 3.19957,1.2341 4.65518,2.24123 4.84108,3.34953 0.15961,0.95213 -0.17236,1.55799 -0.83186,1.51762 z m 65.68288,-9.89635 c -0.3557,0.13864 -0.88034,-0.30169 -1.16585,-0.97854 -0.28554,-0.67685 -0.28689,-1.44191 -0.003,-1.70014 0.28386,-0.25822 2.4405,-1.08597 4.79249,-1.83944 2.352,-0.75346 4.5992,-1.18845 4.99373,-0.96663 0.39457,0.22181 0.71738,0.82672 0.71738,1.34423 0,0.51751 -1.9548,1.60412 -4.344,2.41467 -2.38922,0.81056 -4.63504,1.58718 -4.99073,1.72585 z m -61.37347,-0.90004 c -0.68629,0.0712 -2.93232,-0.4796 -4.99118,-1.22411 -2.05885,-0.74449 -3.86441,-1.90481 -4.01232,-2.57849 -0.19834,-0.90329 0.34759,-1.2153 2.07965,-1.1885 1.29172,0.0198 3.65879,0.61911 5.26013,1.33137 1.60132,0.71225 2.9115,1.79794 2.9115,2.41261 0,0.61469 -0.5615,1.17589 -1.24778,1.24712 z m 30.97118,-8.21857 c -7.90991,0.18064 -9.45262,0.0279 -9.87713,-0.97853 -0.2767,-0.65594 -0.26609,-1.40822 0.0234,-1.67171 0.28967,-0.26351 4.73438,-0.47573 9.87716,-0.47159 8.65694,0.007 9.35045,0.1151 9.35045,1.45761 0,1.33057 -0.77288,1.46777 -9.37404,1.66422 z m 25.94193,-1.34978 c -0.0382,3.3e-4 -0.31886,-0.2264 -0.62389,-0.50387 -0.30502,-0.27746 -0.55456,-0.92092 -0.55456,-1.42991 0,-0.50899 1.68451,-1.37788 3.74336,-1.93087 2.05886,-0.553 3.74338,-1.21097 3.74338,-1.46215 0,-0.2512 -0.59507,-2.04537 -1.32235,-3.98706 -1.17118,-3.12672 -1.50603,-3.44093 -2.92873,-2.7483 -0.88349,0.4301 -1.97293,0.57591 -2.42099,0.32401 -0.4481,-0.25191 -0.81467,-0.78687 -0.81467,-1.1888 0,-0.40193 0.93583,-1.05446 2.07964,-1.45004 1.14381,-0.39559 2.07966,-0.83729 2.07966,-0.98155 0,-0.14427 -0.58546,-1.82527 -1.30101,-3.73559 -1.28712,-3.43626 -1.32929,-3.46532 -3.95134,-2.72206 -1.45768,0.4132 -3.30543,0.93368 -4.10609,1.15663 -1.06538,0.29665 -1.45576,-0.0203 -1.45576,-1.18192 0,-1.03393 0.65249,-1.71392 1.87169,-1.95058 1.02943,-0.19982 2.58934,-0.4617 3.46647,-0.58196 0.87715,-0.12024 1.75603,-0.65915 1.9531,-1.19754 0.25996,-0.71003 -0.23526,-0.84338 -1.80275,-0.4855 -1.82546,0.41677 -2.16107,0.24048 -2.16107,-1.13524 0,-1.09755 0.44658,-1.55614 1.36946,-1.40629 0.75319,0.1223 1.54624,-0.23922 1.7623,-0.80336 0.30125,-0.78661 -0.21187,-0.90489 -2.20133,-0.50742 -2.25527,0.45061 -2.59415,0.31276 -2.59415,-1.05525 0,-1.06908 0.53337,-1.57355 1.66372,-1.57355 0.91505,0 1.66372,-0.34053 1.66372,-0.75671 0,-0.4162 -0.93584,-0.75672 -2.07964,-0.75672 -1.22201,0 -2.07966,-0.43428 -2.07966,-1.05304 0,-0.57918 0.95116,-1.2702 2.11368,-1.53563 1.1625,-0.26541 1.92012,-0.76744 1.68359,-1.11561 -0.23657,-0.34818 -1.37489,-0.46876 -2.52962,-0.26796 -1.58279,0.27523 -2.09951,0.0466 -2.09951,-0.92904 0,-0.71177 0.74867,-1.47224 1.66372,-1.68991 0.91505,-0.21767 1.66372,-0.72364 1.66372,-1.12435 0,-0.42976 -1.10884,-0.50416 -2.70355,-0.18139 -1.48695,0.30095 -3.26505,0.58341 -3.95134,0.62767 -0.72271,0.0466 -1.24779,-0.55641 -1.24779,-1.43297 0,-0.83239 0.46792,-1.556 1.03983,-1.60802 0.5719,-0.052 2.3812,-0.13716 4.02067,-0.18918 1.98459,-0.0629 2.86389,-0.41072 2.63096,-1.04048 -0.19626,-0.53082 -1.32187,-0.83911 -2.56491,-0.70256 -1.51143,0.16606 -2.21504,-0.10834 -2.21504,-0.86387 0,-0.60895 0.95117,-1.32435 2.11369,-1.58976 1.1625,-0.26543 1.92012,-0.76746 1.68358,-1.11563 -0.23656,-0.34817 -1.4121,-0.46229 -2.61233,-0.25358 -1.7962,0.31235 -2.12931,0.12705 -1.88304,-1.04737 0.16559,-0.79004 1.13073,-1.53478 2.16237,-1.66866 1.02475,-0.13299 1.86318,-0.57154 1.86318,-0.97454 0,-0.40299 -1.01611,-0.63471 -2.25806,-0.5149 -1.60403,0.15472 -2.34452,-0.16575 -2.55657,-1.10644 -0.22279,-0.98848 0.24435,-1.32425 1.84214,-1.32425 1.30737,0 2.14063,-0.42365 2.14063,-1.08836 0,-0.71403 -0.77555,-1.03936 -2.25502,-0.94589 -1.55868,0.0984 -2.34814,-0.26647 -2.55657,-1.1818 -0.23526,-1.03344 0.25996,-1.32424 2.25502,-1.32424 1.40611,0 2.55657,-0.36625 2.55657,-0.81388 0,-0.49786 -1.53418,-0.72695 -3.95134,-0.59003 -3.57238,0.20238 -3.9776,0.0573 -4.22513,-1.51163 -0.26102,-1.65453 -0.0962,-1.71123 3.53542,-1.21583 2.98572,0.40729 3.80919,0.29012 3.80919,-0.54202 0,-0.66091 -0.8635,-1.05039 -2.28762,-1.03181 -1.49346,0.0194 -2.28762,-0.36424 -2.28762,-1.10525 0,-0.67573 0.92573,-1.23197 2.28762,-1.37451 1.2582,-0.1317 2.28762,-0.55734 2.28762,-0.9459 0,-0.38855 -1.15047,-0.70646 -2.55657,-0.70646 -1.99054,0 -2.49249,-0.29319 -2.26711,-1.32424 0.19264,-0.88125 0.90876,-1.24507 2.14063,-1.08751 1.01816,0.1302 1.85119,-0.1252 1.85119,-0.56755 0,-0.44235 -0.96329,-0.80427 -2.14065,-0.80427 -1.5927,0 -2.06771,-0.33898 -1.8557,-1.32425 0.17938,-0.83377 0.98496,-1.28974 2.17481,-1.23108 1.05867,0.0522 1.75338,-0.27919 1.57957,-0.75351 -0.17053,-0.46568 -1.02826,-0.84813 -1.90583,-0.84989 -0.87758,-0.001 -1.59558,-0.48153 -1.59558,-1.06614 0,-0.58462 0.68938,-1.15498 1.53198,-1.26748 0.84259,-0.11254 1.77844,-0.44397 2.07965,-0.73664 0.30121,-0.29265 -1.23042,-0.29733 -3.40367,-0.0105 -3.62139,0.47812 -3.95133,0.39144 -3.95133,-1.03812 0,-1.39933 0.50585,-1.55976 4.91804,-1.55976 h 4.91804 l 0.38828,2.83768 c 0.21342,1.56072 0.43898,6.07264 0.50101,10.02648 0.0621,3.95385 0.68036,11.10481 1.37408,15.89103 0.69372,4.78624 1.38896,9.38328 1.54502,10.21567 0.15598,0.83238 1.10196,5.08891 2.10204,9.45894 1.0001,4.37004 2.38568,9.8184 3.07905,12.10746 0.69339,2.28907 2.38375,7.3023 3.75638,11.14051 1.37262,3.83822 2.37468,7.70543 2.22681,8.59379 -0.19185,1.1529 -1.4594,2.02514 -4.42816,3.04731 -2.28761,0.78764 -4.1905,1.43235 -4.22863,1.43269 z M 470.6019,201.6136 c -0.68629,0.0817 -2.86592,-0.37593 -4.84364,-1.01692 -1.97772,-0.64098 -3.77337,-1.58627 -3.99036,-2.10061 -0.21707,-0.51437 0.40093,-3.45732 1.37311,-6.53989 0.97219,-3.08258 3.02016,-10.20174 4.55107,-15.82035 1.53088,-5.61861 3.17201,-12.59931 3.64696,-15.51267 0.47493,-2.91336 1.25204,-7.74626 1.72691,-10.73979 0.47486,-2.99352 0.58583,-6.13457 0.86339,-8.01469 0.17368,-2.10219 0.20198,-3.07748 0.40765,-5.43171 0.22411,-2.51462 0.42434,-5.13599 0.42434,-9.83964 0,-7.523 0.17522,-8.58916 1.45577,-8.86019 0.80066,-0.16945 3.14026,-0.29429 5.19913,-0.27743 3.17757,0.026 3.74337,0.25942 3.74337,1.54409 0,1.17355 -0.48211,1.46904 -2.14671,1.31571 -1.73888,-0.16016 -2.13396,0.11835 -2.07966,1.46611 0.0466,1.15383 -0.5704,1.82919 -2.01259,2.20326 l -2.07965,0.53944 2.14899,0.0754 c 1.18191,0.0414 2.37272,0.27898 2.64622,0.52777 0.27347,0.2488 0.29583,0.92984 0.0497,1.51344 -0.24618,0.58359 -1.4058,1.06109 -2.5769,1.06109 -1.17113,0 -1.85981,0.24516 -1.53039,0.54481 0.32938,0.29964 1.4212,0.55503 2.42625,0.56753 1.05865,0.0132 1.82736,0.50023 1.82736,1.15781 0,0.67573 -0.92575,1.23196 -2.28761,1.37451 -1.25819,0.13169 -2.28763,0.55734 -2.28763,0.94589 0,0.38856 0.93586,0.70646 2.07966,0.70646 1.52507,0 2.07966,0.40358 2.07966,1.51343 0,1.10985 -0.55459,1.51343 -2.07966,1.51343 -1.1438,0 -2.07966,0.25785 -2.07966,0.573 0,0.31514 1.68453,0.45112 3.74338,0.30215 3.3431,-0.24186 3.74338,-0.10086 3.74338,1.31881 0,1.37952 -0.49477,1.58962 -3.74338,1.58962 -2.08861,0 -3.74338,0.35554 -3.74338,0.80429 0,0.44235 0.83305,0.69775 1.85119,0.56753 1.20643,-0.15427 1.94796,0.20546 2.12909,1.03291 0.19679,0.89943 -0.38487,1.34073 -1.99501,1.51343 -1.25008,0.13408 -2.432,0.68429 -2.62642,1.22268 -0.25631,0.70955 0.24098,0.84314 1.80754,0.48551 1.81501,-0.4144 2.16107,-0.23793 2.16107,1.10206 0,1.29042 -0.50898,1.59547 -2.66196,1.59547 -1.61277,0 -2.35051,0.2693 -1.87169,0.68326 0.43465,0.3758 1.5079,0.80145 2.38505,0.9459 0.87715,0.14444 1.7506,0.68828 1.94102,1.20852 0.22824,0.62389 -0.55056,0.9459 -2.28802,0.9459 -1.73289,0 -2.51603,0.32256 -2.28878,0.94268 0.19003,0.51848 1.06343,0.94414 1.94099,0.9459 0.87757,0.001 1.59559,0.51399 1.59559,1.13828 0,0.69225 -0.78666,1.14148 -2.01635,1.15149 -1.109,0.009 -2.15484,0.39434 -2.3241,0.85624 -0.19132,0.52183 1.00981,0.85636 3.17201,0.88349 1.91387,0.0241 3.85166,0.38201 4.30622,0.79552 0.45459,0.4135 0.60923,1.26684 0.34372,1.89632 -0.38526,0.91327 -1.03669,0.99999 -3.22445,0.42922 -1.50807,-0.39339 -3.39938,-0.71526 -4.20306,-0.71526 -0.80369,0 -1.46124,0.31684 -1.46124,0.70409 0,0.38724 0.84225,0.8129 1.87169,0.94589 1.02942,0.133 1.87169,0.75259 1.87169,1.37688 0,0.78659 -0.70233,1.06821 -2.28763,0.91726 -1.25818,-0.1198 -2.28761,0.11196 -2.28761,0.51491 0,0.40299 0.84225,0.84154 1.87169,0.97453 1.02942,0.13299 1.87169,0.74924 1.87169,1.36945 0,0.64754 -1.0625,1.32098 -2.49559,1.58175 l -2.49559,0.45411 2.35523,0.88223 c 1.2954,0.48523 2.19856,1.3058 2.00707,1.82347 -0.19469,0.5261 -1.32512,0.83392 -2.56319,0.6979 -1.21826,-0.13384 -2.21503,0.12155 -2.21503,0.56754 0,0.44598 0.74867,0.81088 1.66372,0.81088 1.13767,0 1.66372,0.50448 1.66372,1.59546 0,1.32397 -0.35388,1.51467 -2.07966,1.12066 -1.14381,-0.26115 -2.07965,-0.14784 -2.07965,0.25179 0,0.39963 1.59093,1.01151 3.53542,1.35973 2.75462,0.49331 3.59411,1.00449 3.80123,2.31467 0.1461,0.92485 0.1461,1.67788 0,1.67337 -0.14609,-0.005 -1.99451,-0.48547 -4.10732,-1.0688 l -3.8415,-1.06062 -0.94169,2.8592 c -0.51797,1.57258 -0.94172,3.37779 -0.94172,4.0116 0,0.63381 0.65509,1.10508 1.45576,1.04728 0.93968,-0.0678 1.45575,0.4314 1.45575,1.40833 0,1.17439 -0.48188,1.469 -2.15114,1.31507 -1.823,-0.16809 -2.3087,0.23591 -3.184,2.64851 -0.56806,1.56578 -1.09741,3.1711 -1.17631,3.56738 -0.079,0.39628 1.54109,1.09362 3.59994,1.54963 2.2793,0.50483 3.74337,1.25484 3.74337,1.91762 0,0.59869 -0.5615,1.15535 -1.24779,1.23703 z m 7.73991,-85.56726 c -1.4621,0.10145 -3.0712,-0.26798 -3.5758,-0.82104 -0.50458,-0.55306 -0.61849,-1.17243 -0.25321,-1.37637 0.36537,-0.20393 1.97447,-0.48965 3.57581,-0.6349 2.41921,-0.21946 2.91152,-0.018 2.91152,1.19184 0,1.09455 -0.65985,1.50174 -2.6584,1.64047 z m 36.31904,0.15564 c -1.61769,0.12387 -3.20862,-0.018 -3.53541,-0.31529 -0.3268,-0.29729 -0.59416,-1.01411 -0.59416,-1.59296 0,-0.77022 0.94811,-0.99007 3.53541,-0.81977 2.47432,0.16285 3.53541,0.57335 3.53541,1.36775 0,0.75248 -0.99139,1.21098 -2.94125,1.36027 z m -36.57216,-4.50442 c -2.85903,0.15347 -3.32744,-0.0388 -3.32744,-1.36549 0,-1.29696 0.53254,-1.54408 3.32744,-1.54408 2.6527,0 3.32744,0.27689 3.32744,1.36548 0,1.05883 -0.74726,1.4056 -3.32744,1.54409 z m 35.77003,0.11729 c -2.77287,0 -3.32744,-0.25223 -3.32744,-1.51343 0,-1.26119 0.55457,-1.51343 3.32744,-1.51343 2.77288,0 3.32745,0.25224 3.32745,1.51343 0,1.2612 -0.55457,1.51343 -3.32745,1.51343 z m -35.9849,-4.68379 c -2.67195,0.20162 -3.11257,0.0142 -3.11257,-1.32426 0,-1.31916 0.52146,-1.55911 3.38842,-1.55911 2.77762,0 3.33874,0.23872 3.11257,1.32425 -0.19289,0.92548 -1.21317,1.39498 -3.38842,1.55912 z m 35.84628,0.1435 c -2.63425,0 -3.18882,-0.26322 -3.18882,-1.51344 0,-1.25426 0.55457,-1.51343 3.23843,-1.51343 2.0109,0 3.40814,0.40222 3.68609,1.06109 0.24618,0.5836 0.22382,1.26465 -0.0497,1.51344 -0.27353,0.24879 -1.93224,0.45234 -3.68608,0.45234 z m -73.97954,154.77527 c -0.34314,0.18753 -5.49391,-1.65172 -7.89591,-3.05945 -2.402,-1.40773 -6.53033,-4.14888 -6.53033,-4.77691 0,-0.62801 0.54625,-1.14184 1.21389,-1.14184 0.66765,0 5.07673,2.00951 7.15424,3.15101 2.10334,1.1557 6.68202,3.48569 6.68202,4.20129 0,0.70682 -0.28076,1.43847 -0.62391,1.6259 z"
       id="path2020"
       sodipodi:nodetypes="csssscsssssssssssscssssssssssscssssscscsssssscssssscsssssssssscsssscscssssccsssssssssssccsssssssssssssssssssssssssssssssssssssssssssssssssssssssssssssssssssssssscssssssccssssssssssssssssssccsssssscssssssssssssssssssssssssssssscsssssssssssssssscssssssssscsscsssssscssssssccsssssssssssssssssscssccssssssssssssssss" />
    <path
       id="rect4752"
       style="fill:none;stroke:#00ff00;stroke-width:2;stroke-miterlimit:4;stroke-dasharray:none"
       d="m 386,109 h 48 v 18 h -48 z"
       sodipodi:nodetypes="ccccc" />
    <text
       xml:space="preserve"
       style="font-style:normal;font-weight:normal;font-size:14.6667px;line-height:1.25;font-family:sans-serif;letter-spacing:0px;word-spacing:0px;fill:#00ff00;fill-opacity:1;stroke:none"
       x="401.57733"
       y="104.61868"
       id="text8017"><tspan
         sodipodi:role="line"
         id="tspan8015"
         x="401.57733"
         y="104.61868"
         style="font-size:14.6667px;fill:#00ff00;fill-opacity:1">N<tspan
   style="font-size:10.6667px;fill:#00ff00;fill-opacity:1"
   id="tspan14337">2</tspan>%</tspan></text>
    <path
       id="rect4752-3"
       style="fill:none;stroke:#00ff00;stroke-width:2;stroke-miterlimit:4;stroke-dasharray:none"
       d="m 560,109 h 48 v 18 h -48 z"
       sodipodi:nodetypes="ccccc" />
    <path
       id="rect4752-3-5"
       style="fill:none;stroke:#00ff00;stroke-width:2;stroke-miterlimit:4;stroke-dasharray:none"
       d="m 560,189.00045 40,-4.4e-4 v 17.99977 l -40,4.4e-4 z"
       sodipodi:nodetypes="ccccc" />
    <path
       id="rect4752-3-5-1"
       style="fill:none;stroke:#00ff00;stroke-width:2;stroke-miterlimit:4;stroke-dasharray:none"
       d="m 394,189.00045 40,-4.4e-4 v 17.99977 l -40,4.4e-4 z"
       sodipodi:nodetypes="ccccc" />
    <text
       xml:space="preserve"
       style="font-style:normal;font-weight:normal;font-size:14.6667px;line-height:1.25;font-family:sans-serif;letter-spacing:0px;word-spacing:0px;fill:#00ff00;fill-opacity:1;stroke:none"
       x="567.57733"
       y="106.61868"
       id="text8017-6"><tspan
         sodipodi:role="line"
         id="tspan8015-7"
         x="567.57733"
         y="106.61868"
         style="font-size:14.6667px;fill:#00ff00;fill-opacity:1">N<tspan
   style="font-size:10.6667px;fill:#00ff00;fill-opacity:1"
   id="tspan14337-5">2</tspan>%</tspan></text>
    <text
       xml:space="preserve"
       style="font-style:normal;font-weight:normal;font-size:14.6669px;line-height:1.25;font-family:sans-serif;letter-spacing:0px;word-spacing:0px;fill:#00c8ff;fill-opacity:1;stroke:none;stroke-width:1.00001"
       x="568.84753"
       y="184.62062"
       id="text8017-6-6"
       transform="scale(1.0000102,0.9999898)"><tspan
         sodipodi:role="line"
         id="tspan8015-7-2"
         x="568.84753"
         y="184.62062"
         style="font-size:14.6669px;fill:#00c8ff;fill-opacity:1;stroke-width:1.00001">T°</tspan></text>
    <text
       xml:space="preserve"
       style="font-style:normal;font-weight:normal;font-size:14.6669px;line-height:1.25;font-family:sans-serif;letter-spacing:0px;word-spacing:0px;fill:#00c8ff;fill-opacity:1;stroke:none;stroke-width:1.00001"
       x="417.60117"
       y="184.62062"
       id="text8017-6-6-2"
       transform="scale(1.0000102,0.9999898)"><tspan
         sodipodi:role="line"
         id="tspan8015-7-2-7"
         x="417.60117"
         y="184.62062"
         style="font-size:14.6669px;fill:#00c8ff;fill-opacity:1;stroke-width:1.00001">T°</tspan></text>
    <text
       xml:space="preserve"
       style="font-style:normal;font-weight:normal;font-size:14.6667px;line-height:1.25;font-family:sans-serif;letter-spacing:0px;word-spacing:0px;fill:#00ff00;fill-opacity:1;stroke:none"
       x="531.63397"
       y="248.67676"
       id="text8017-7"><tspan
         sodipodi:role="line"
         id="tspan8015-5"
         x="531.63397"
         y="248.67676"
         style="font-size:14.6667px;fill:#00ff00;fill-opacity:1"><tspan
           style="font-size:10.6667px;fill:#00ff00;fill-opacity:1"
           id="tspan14337-3">2</tspan></tspan></text>
    <text
       xml:space="preserve"
       style="font-style:normal;font-weight:normal;font-size:14.6667px;line-height:1.25;font-family:sans-serif;letter-spacing:0px;word-spacing:0px;fill:#00ff00;fill-opacity:1;stroke:none"
       x="457.66476"
       y="247.41803"
       id="text8017-7-5"><tspan
         sodipodi:role="line"
         id="tspan8015-5-6"
         x="457.66476"
         y="247.41803"
         style="font-size:14.6667px;fill:#00ff00;fill-opacity:1"><tspan
           style="font-size:10.6667px;fill:#00ff00;fill-opacity:1"
           id="tspan14337-3-2">2</tspan></tspan></text>
    <text
       xml:space="preserve"
       style="font-style:normal;font-weight:normal;font-size:14.6667px;line-height:1.25;font-family:sans-serif;letter-spacing:0px;word-spacing:0px;fill:#00ff00;fill-opacity:1;stroke:none"
       x="443.27338"
       y="265.77563"
       id="text8017-7-9"><tspan
         sodipodi:role="line"
         id="tspan8015-5-1"
         x="443.27338"
         y="265.77563"
         style="font-size:14.6667px;fill:#00ff00;fill-opacity:1">0<tspan
   style="font-size:10.6667px;fill:#00ff00;fill-opacity:1"
   id="tspan14337-3-27" /></tspan></text>
    <text
       xml:space="preserve"
       style="font-style:normal;font-weight:normal;font-size:14.6667px;line-height:1.25;font-family:sans-serif;letter-spacing:0px;word-spacing:0px;fill:#00ff00;fill-opacity:1;stroke:none"
       x="543.0097"
       y="267.68182"
       id="text8017-7-9-0"><tspan
         sodipodi:role="line"
         id="tspan8015-5-1-9"
         x="543.0097"
         y="267.68182"
         style="font-size:14.6667px;fill:#00ff00;fill-opacity:1">0<tspan
   style="font-size:10.6667px;fill:#00ff00;fill-opacity:1"
   id="tspan14337-3-27-3" /></tspan></text>
    <text
       xml:space="preserve"
       style="font-style:normal;font-weight:normal;font-size:14.6667px;line-height:1.25;font-family:sans-serif;letter-spacing:0px;word-spacing:0px;fill:#00ff00;fill-opacity:1;stroke:none"
       x="468.43188"
       y="226.7709"
       id="text8017-7-9-6"><tspan
         sodipodi:role="line"
         id="tspan8015-5-1-0"
         x="468.43188"
         y="226.7709"
         style="font-size:14.6667px;fill:#00ff00;fill-opacity:1">4</tspan></text>
    <text
       xml:space="preserve"
       style="font-style:normal;font-weight:normal;font-size:14.6667px;line-height:1.25;font-family:sans-serif;letter-spacing:0px;word-spacing:0px;fill:#00ff00;fill-opacity:1;stroke:none"
       x="517.99011"
       y="228.85812"
       id="text8017-7-9-6-2"><tspan
         sodipodi:role="line"
         id="tspan8015-5-1-0-6"
         x="517.99011"
         y="228.85812"
         style="font-size:14.6667px;fill:#00ff00;fill-opacity:1">4</tspan></text>
    <text
       xml:space="preserve"
       style="font-style:normal;font-weight:normal;font-size:14.6667px;line-height:1.25;font-family:sans-serif;letter-spacing:0px;word-spacing:0px;fill:#00ff00;fill-opacity:1;stroke:none"
       x="509.27026"
       y="206.37006"
       id="text8017-7-9-6-1"><tspan
         sodipodi:role="line"
         id="tspan8015-5-1-0-8"
         x="509.27026"
         y="206.37006"
         style="font-size:14.6667px;fill:#00ff00;fill-opacity:1">6</tspan></text>
    <text
       xml:space="preserve"
       style="font-style:normal;font-weight:normal;font-size:14.6667px;line-height:1.25;font-family:sans-serif;letter-spacing:0px;word-spacing:0px;fill:#00ff00;fill-opacity:1;stroke:none"
       x="475.07919"
       y="205.9111"
       id="text8017-7-9-6-7"><tspan
         sodipodi:role="line"
         id="tspan8015-5-1-0-9"
         x="475.07919"
         y="205.9111"
         style="font-size:14.6667px;fill:#00ff00;fill-opacity:1">6</tspan></text>
    <text
       xml:space="preserve"
       style="font-style:normal;font-weight:normal;font-size:14.6667px;line-height:1.25;font-family:sans-serif;letter-spacing:0px;word-spacing:0px;fill:#00ff00;fill-opacity:1;stroke:none"
       x="492.28946"
       y="185.25879"
       id="text8017-7-9-6-20"><tspan
         sodipodi:role="line"
         id="tspan8015-5-1-0-2"
         x="492.28946"
         y="185.25879"
         style="font-size:14.6667px;fill:#00ff00;fill-opacity:1">7</tspan></text>
    <text
       xml:space="preserve"
       style="font-style:normal;font-weight:normal;font-size:14.6667px;line-height:1.25;font-family:sans-serif;letter-spacing:0px;word-spacing:0px;fill:#00ff00;fill-opacity:1;stroke:none"
       x="492.05997"
       y="165.29486"
       id="text8017-7-9-6-3"><tspan
         sodipodi:role="line"
         id="tspan8015-5-1-0-7"
         x="492.05997"
         y="165.29486"
         style="font-size:14.6667px;fill:#00ff00;fill-opacity:1">8</tspan></text>
    <text
       xml:space="preserve"
       style="font-style:normal;font-weight:normal;font-size:14.6667px;line-height:1.25;font-family:sans-serif;letter-spacing:0px;word-spacing:0px;fill:#00ff00;fill-opacity:1;stroke:none"
       x="492.74838"
       y="144.87204"
       id="text8017-7-9-6-5"><tspan
         sodipodi:role="line"
         id="tspan8015-5-1-0-92"
         x="492.74838"
         y="144.87204"
         style="font-size:14.6667px;fill:#00ff00;fill-opacity:1">9</tspan></text>
    <text
       xml:space="preserve"
       style="font-style:normal;font-weight:normal;font-size:14.6667px;line-height:1.25;font-family:sans-serif;letter-spacing:0px;word-spacing:0px;fill:#00ff00;fill-opacity:1;stroke:none"
       x="487.30634"
       y="125.59653"
       id="text8017-7-9-6-28"><tspan
         sodipodi:role="line"
         id="tspan8015-5-1-0-97"
         x="487.30634"
         y="125.59653"
         style="font-size:14.6667px;fill:#00ff00;fill-opacity:1">10</tspan></text>
    <path
       style="fill:none;stroke:#fdfffd;stroke-width:2;stroke-linecap:butt;stroke-linejoin:miter;stroke-miterlimit:4;stroke-dasharray:none;stroke-opacity:1"
       d="m 518,105 11,-8 v 4 h 12 v 8 h -12 v 4 z"
       id="path17340"
       sodipodi:nodetypes="cccccccc" />
    <path
       style="fill:none;stroke:#fefffe;stroke-width:1.9968;stroke-linecap:butt;stroke-linejoin:miter;stroke-miterlimit:4;stroke-dasharray:none;stroke-opacity:1"
       d="m 475.37891,105.30494 -11.02676,-7.95509 v 3.97755 h -12.0292 v 7.95508 h 12.0292 v 3.97755 z"
       id="path17340-3"
       sodipodi:nodetypes="cccccccc" />
    <g
       id="g22468">
      <path
         style="fill:none;stroke:#00fd00;stroke-width:1.99967;stroke-linecap:butt;stroke-linejoin:miter;stroke-miterlimit:4;stroke-dasharray:none;stroke-opacity:1"
         d="m 718,294.9531 h 19.00017 V 156.99984 H 723.00004 V 294.9531"
         id="path1005-3"
         sodipodi:nodetypes="ccccc" />
      <path
         style="fill:none;stroke:#00fe00;stroke-width:2;stroke-linecap:butt;stroke-linejoin:miter;stroke-miterlimit:4;stroke-dasharray:none;stroke-opacity:1"
         d="M 727.5,156 V 295"
         id="path22135-1"
         sodipodi:nodetypes="cc" />
      <path
         style="fill:none;stroke:#00fe00;stroke-width:2;stroke-linecap:butt;stroke-linejoin:miter;stroke-miterlimit:4;stroke-dasharray:none;stroke-opacity:1"
         d="m 732,156.5 v 139"
         id="path22135-1-2"
         sodipodi:nodetypes="cc" />
      <path
         style="fill:none;stroke:#00fd00;stroke-width:2;stroke-linecap:butt;stroke-linejoin:miter;stroke-miterlimit:4;stroke-dasharray:none;stroke-opacity:1"
         d="M 693,295 H 674 V 157 h 14 v 138"
         id="path1005"
         sodipodi:nodetypes="ccccc" />
      <path
         style="fill:none;stroke:#00fe00;stroke-width:2;stroke-linecap:butt;stroke-linejoin:miter;stroke-miterlimit:4;stroke-dasharray:none;stroke-opacity:1"
         d="M 678.5,156 V 295"
         id="path22135"
         sodipodi:nodetypes="cc" />
      <path
         style="fill:none;stroke:#00fe00;stroke-width:2;stroke-linecap:butt;stroke-linejoin:miter;stroke-miterlimit:4;stroke-dasharray:none;stroke-opacity:1"
         d="M 683.5,156 V 295"
         id="path22135-6"
         sodipodi:nodetypes="cc" />
    </g>
  </g>
</svg>
