<?xml version="1.0" encoding="UTF-8" standalone="no"?>
<!-- Created with Inkscape (http://www.inkscape.org/) -->

<svg
   version="1.1"
   id="svg2"
   width="1024"
   height="768"
   viewBox="0 0 1024 768.00001"
   sodipodi:docname="engine.svg"
   inkscape:version="1.1.2 (0a00cf5339, 2022-02-04)"
   xmlns:inkscape="http://www.inkscape.org/namespaces/inkscape"
   xmlns:sodipodi="http://sodipodi.sourceforge.net/DTD/sodipodi-0.dtd"
   xmlns="http://www.w3.org/2000/svg"
   xmlns:svg="http://www.w3.org/2000/svg">
  <defs
     id="defs6" />
  <sodipodi:namedview
     id="namedview4"
     pagecolor="#5d5d5d"
     bordercolor="#666666"
     borderopacity="1.0"
     inkscape:pageshadow="2"
     inkscape:pageopacity="0"
     inkscape:pagecheckerboard="0"
     showgrid="false"
     inkscape:zoom="0.58170165"
     inkscape:cx="691.07591"
     inkscape:cy="484.7846"
     inkscape:window-width="1920"
     inkscape:window-height="1016"
     inkscape:window-x="0"
     inkscape:window-y="0"
     inkscape:window-maximized="1"
     inkscape:current-layer="g8" />
  <g
     inkscape:groupmode="layer"
     inkscape:label="Image"
     id="g8">
    <path
       style="fill:#00fe00;fill-opacity:1;stroke:none;stroke-width:1.05787"
       d="m 754.15491,341.31185 c -2.95241,2.09688 -11.59474,8.52861 -13.06506,8.52861 -1.54806,0 -2.67326,-0.59272 -2.67326,-1.40824 0,-0.77453 2.39962,-2.80901 5.33244,-4.52097 2.93284,-1.71197 6.35775,-4.14297 7.61095,-5.4022 1.25317,-1.2592 1.93701,-0.21855 2.84459,0.28736 M 594.50439,337.0595 c -0.45752,0.25004 -3.45222,-1.08132 -6.65488,-2.95829 -3.20267,-1.87697 -5.82303,-4.09776 -5.82303,-4.93513 0,-0.83735 0.72833,-1.52246 1.61852,-1.52246 0.8902,0 3.88489,1.24527 6.65491,2.76727 2.80445,1.54093 5.03636,3.52661 5.03636,4.48075 0,0.94242 -0.37435,1.91796 -0.83188,2.16786 z m 139.11858,0.67366 c -0.2104,0 -0.71533,-0.30267 -1.12204,-0.67263 -0.40668,-0.36996 -0.73943,-1.23921 -0.73943,-1.93164 0,-0.69245 2.33996,-2.44869 5.19991,-3.90276 2.85993,-1.45405 5.85462,-2.41517 6.65488,-2.13583 0.80025,0.27935 1.44602,0.86267 1.43506,1.2963 -0.0107,0.4336 -2.50074,2.26396 -5.53285,4.06748 -3.03213,1.8035 -5.6851,3.27908 -5.89553,3.27908 z m -8.9686,-13.1164 c -0.28943,0 -0.83447,-0.45403 -1.21148,-1.00895 -0.377,-0.55493 -0.40176,-1.42657 -0.0551,-1.93699 0.34678,-0.5104 2.93468,-2.0995 5.7509,-3.53133 2.81621,-1.43184 5.55666,-2.60333 6.08985,-2.60333 0.5332,0 0.96944,0.9004 0.96944,2.00093 0,1.38583 -1.69348,2.78152 -5.50887,4.54028 -3.02984,1.39665 -5.74553,2.53939 -6.03484,2.53939 z m -122.9405,-1.02555 c -0.76255,-0.009 -3.33506,-1.03069 -5.7167,-2.27015 -2.38161,-1.23946 -4.85956,-3.02632 -5.50652,-3.97082 -0.64692,-0.94452 -0.78997,-2.06867 -0.31782,-2.49815 0.4721,-0.42948 3.57396,0.51246 6.89294,2.0932 4.0418,1.925 6.03452,3.49956 6.03452,4.76829 0,1.04182 -0.62389,1.88675 -1.38642,1.87763 z m 115.29586,-12.09086 c -0.22357,0 -0.73931,-0.30268 -1.14604,-0.67264 -0.40667,-0.36994 -0.73941,-1.24474 -0.73941,-1.94394 0,-0.69921 2.80545,-2.43966 6.23434,-3.86766 3.42891,-1.42799 6.4236,-2.59635 6.6549,-2.59635 0.23118,0 0.42054,0.90041 0.42054,2.00092 0,1.38583 -1.69346,2.78152 -5.50886,4.54028 -3.0299,1.39667 -5.69183,2.53939 -5.91547,2.53939 z m -107.53184,-1.03738 c -0.76253,-0.0157 -3.63245,-1.07061 -6.3776,-2.34438 -3.36612,-1.56192 -5.11182,-3.06752 -5.3618,-4.62424 -0.2038,-1.26956 0.0457,-2.11914 0.55459,-1.88794 0.50885,0.23122 3.54556,1.47739 6.74822,2.7693 4.02275,1.62272 5.82303,2.93118 5.82303,4.23232 0,1.03584 -0.62391,1.87057 -1.38644,1.85494 z m 99.71632,-12.07902 c -0.39863,0 -0.72483,-0.907 -0.72483,-2.01552 0,-1.4332 1.67524,-2.75068 5.79836,-4.56006 3.18912,-1.3995 6.42495,-2.32582 7.19079,-2.05849 0.76581,0.26731 1.09285,1.19611 0.72676,2.06393 -0.36609,0.86787 -3.27577,2.70118 -6.46591,4.07404 -3.19016,1.37284 -6.12649,2.4961 -6.52517,2.4961 z m -92.98427,-1.09856 c -0.80497,-0.0493 -3.81852,-1.07087 -6.69673,-2.27016 -2.87824,-1.19928 -5.51496,-2.82399 -5.85937,-3.61044 -0.34455,-0.78644 -0.2357,-1.7746 0.24192,-2.1959 0.47753,-0.42129 3.61337,0.29283 6.96853,1.58696 4.26609,1.64547 6.20691,2.98831 6.45477,4.46604 0.21282,1.26951 -0.22981,2.07732 -1.10914,2.0235 z m 87.57718,-13.19514 c -0.47427,0.18486 -1.17379,-0.40225 -1.55447,-1.30472 -0.38072,-0.90246 -0.38252,-1.92254 -0.004,-2.26685 0.37848,-0.34429 3.254,-1.44796 6.38999,-2.45259 3.136,-1.00461 6.13226,-1.5846 6.6583,-1.28884 0.5261,0.29575 0.95651,1.1023 0.95651,1.79231 0,0.69001 -2.6064,2.13883 -5.792,3.21956 -3.18563,1.08075 -6.18005,2.11624 -6.65431,2.30113 z m -81.8313,-1.20005 c -0.91505,0.0949 -3.90976,-0.63947 -6.6549,-1.63215 -2.74514,-0.99265 -5.15255,-2.53974 -5.34976,-3.43798 -0.26446,-1.20439 0.46345,-1.6204 2.77286,-1.58467 1.7223,0.0264 4.87839,0.82548 7.01351,1.77516 2.13509,0.94967 3.882,2.39725 3.882,3.21681 0,0.81959 -0.74867,1.56786 -1.66371,1.66283 z m 41.29491,-10.95809 c -10.54655,0.24085 -12.60349,0.0372 -13.16951,-1.30471 -0.36893,-0.87459 -0.35478,-1.87763 0.0312,-2.22895 0.38623,-0.35134 6.31251,-0.6343 13.16955,-0.62878 11.54259,0.009 12.46727,0.15346 12.46727,1.94348 0,1.77409 -1.03051,1.95702 -12.49872,2.21896 z m 34.58924,-1.79971 c -0.0509,4.4e-4 -0.42515,-0.30187 -0.83185,-0.67183 -0.4067,-0.36994 -0.73942,-1.22789 -0.73942,-1.90654 0,-0.67866 2.24602,-1.83718 4.99115,-2.5745 2.74515,-0.73733 4.99117,-1.61462 4.99117,-1.94953 0,-0.33493 -0.79342,-2.72716 -1.76313,-5.31608 -1.56157,-4.16896 -2.00804,-4.58791 -3.90497,-3.6644 -1.17799,0.57347 -2.63058,0.76788 -3.22799,0.43201 -0.59747,-0.33588 -1.08623,-1.04916 -1.08623,-1.58506 0,-0.53591 1.24778,-1.40595 2.77286,-1.93339 1.52508,-0.52745 2.77288,-1.11639 2.77288,-1.30873 0,-0.19236 -0.78062,-2.4337 -1.73468,-4.98079 -1.71616,-4.58168 -1.77239,-4.62043 -5.26846,-3.62941 -1.94357,0.55093 -4.40724,1.2449 -5.47478,1.54217 -1.42051,0.39553 -1.94102,-0.0271 -1.94102,-1.57589 0,-1.37858 0.86999,-2.28523 2.49559,-2.60078 1.37257,-0.26642 3.45245,-0.6156 4.62196,-0.77594 1.16953,-0.16032 2.34137,-0.87887 2.60413,-1.59672 0.34662,-0.94671 -0.31368,-1.12451 -2.40366,-0.64734 -2.43395,0.5557 -2.88143,0.32064 -2.88143,-1.51365 0,-1.4634 0.59544,-2.07485 1.82595,-1.87505 1.00425,0.16306 2.06165,-0.31896 2.34973,-1.07115 0.40167,-1.04881 -0.28249,-1.20652 -2.93511,-0.67656 -3.00702,0.60081 -3.45886,0.41701 -3.45886,-1.407 0,-1.42544 0.71116,-2.09807 2.21829,-2.09807 1.22007,0 2.21829,-0.45404 2.21829,-1.00894 0,-0.55494 -1.24778,-1.00896 -2.77285,-1.00896 -1.62935,0 -2.77288,-0.57904 -2.77288,-1.40406 0,-0.77224 1.26821,-1.6936 2.81824,-2.0475 1.55,-0.35388 2.56016,-1.02326 2.24479,-1.48748 -0.31543,-0.46424 -1.83319,-0.62502 -3.37283,-0.35728 -2.11039,0.36697 -2.79935,0.0621 -2.79935,-1.23872 0,-0.94903 0.99823,-1.96299 2.2183,-2.25322 1.22006,-0.29022 2.21829,-0.96485 2.21829,-1.49913 0,-0.57301 -1.47845,-0.67221 -3.60473,-0.24185 -1.9826,0.40126 -4.3534,0.77788 -5.26846,0.83689 -0.96361,0.0621 -1.66372,-0.74188 -1.66372,-1.91063 0,-1.10985 0.6239,-2.07466 1.38644,-2.14402 0.76254,-0.0693 3.17494,-0.18288 5.3609,-0.25224 2.64612,-0.0839 3.81852,-0.54763 3.50794,-1.38731 -0.26168,-0.70776 -1.76249,-1.11881 -3.41988,-0.93675 -2.01524,0.22142 -2.95338,-0.14445 -2.95338,-1.15182 0,-0.81194 1.26822,-1.7658 2.81825,-2.11968 1.55,-0.35391 2.56016,-1.02328 2.24477,-1.48751 -0.31541,-0.46423 -1.8828,-0.61639 -3.4831,-0.33811 -2.39494,0.41647 -2.83908,0.1694 -2.51072,-1.39649 0.22078,-1.05339 1.50764,-2.04637 2.88316,-2.22488 1.36633,-0.17732 2.48424,-0.76205 2.48424,-1.29939 0,-0.53732 -1.35482,-0.84628 -3.01075,-0.68653 -2.13871,0.20629 -3.12603,-0.221 -3.40876,-1.47525 -0.29705,-1.31798 0.3258,-1.76567 2.45619,-1.76567 1.74316,0 2.85417,-0.56487 2.85417,-1.45115 0,-0.95204 -1.03407,-1.38581 -3.00669,-1.26118 -2.07824,0.1312 -3.13086,-0.3553 -3.40876,-1.57574 -0.31368,-1.37792 0.34661,-1.76565 3.00669,-1.76565 1.87481,0 3.40876,-0.48833 3.40876,-1.08517 0,-0.66382 -2.04557,-0.96927 -5.26845,-0.78671 -4.76318,0.26984 -5.30347,0.0764 -5.63351,-2.01551 -0.34803,-2.20603 -0.12827,-2.28163 4.71389,-1.6211 3.98096,0.54305 5.07892,0.38683 5.07892,-0.72269 0,-0.88122 -1.15133,-1.40052 -3.05016,-1.37575 -1.99128,0.0259 -3.05016,-0.48565 -3.05016,-1.47367 0,-0.90097 1.23431,-1.64262 3.05016,-1.83268 1.6776,-0.1756 3.05016,-0.74312 3.05016,-1.2612 0,-0.51806 -1.53396,-0.94194 -3.40876,-0.94194 -2.65405,0 -3.32332,-0.39092 -3.02281,-1.76566 0.25685,-1.175 1.21168,-1.66009 2.85417,-1.45001 1.35755,0.1736 2.46826,-0.16693 2.46826,-0.75673 0,-0.5898 -1.28439,-1.07236 -2.8542,-1.07236 -2.1236,0 -2.75695,-0.45198 -2.47427,-1.76567 0.23917,-1.11169 1.31328,-1.71965 2.89975,-1.64144 1.41156,0.0696 2.33784,-0.37225 2.10609,-1.00468 -0.22737,-0.62091 -1.37101,-1.13084 -2.54111,-1.13319 -1.1701,-0.001 -2.12744,-0.64204 -2.12744,-1.42152 0,-0.77949 0.91918,-1.53997 2.04264,-1.68997 1.12346,-0.15005 2.37126,-0.59196 2.77287,-0.98219 0.40161,-0.3902 -1.64056,-0.39644 -4.53823,-0.014 -4.82852,0.6375 -5.26844,0.52192 -5.26844,-1.38416 0,-1.86577 0.67447,-2.07968 6.55739,-2.07968 h 6.55739 l 0.5177,3.78358 c 0.28456,2.08096 0.58531,8.09685 0.66802,13.36864 0.0828,5.2718 0.90714,14.80641 1.8321,21.18803 0.92496,6.38166 1.85195,12.51104 2.06003,13.6209 0.20797,1.10984 1.46928,6.78521 2.80272,12.61192 1.33347,5.82672 3.18091,13.0912 4.1054,16.14328 0.92452,3.05209 3.17833,9.7364 5.00851,14.85401 1.83016,5.11763 3.16624,10.27391 2.96908,11.45839 -0.2558,1.5372 -1.94587,2.70018 -5.90422,4.06308 -3.05014,1.05018 -5.58733,1.9098 -5.63817,1.91025 z m -70.33848,-1.34224 c -0.91505,0.10893 -3.82123,-0.50124 -6.45819,-1.35589 -2.63696,-0.85464 -5.03116,-2.11503 -5.32048,-2.80082 -0.28942,-0.68582 0.53458,-4.60976 1.83082,-8.71985 1.29625,-4.11011 4.02688,-13.60232 6.06809,-21.0938 2.04117,-7.49148 4.22935,-16.79908 4.86261,-20.68356 0.63324,-3.88448 1.66939,-10.32835 2.30255,-14.31972 0.63315,-3.99136 0.78111,-8.17943 1.15119,-10.68625 0.23157,-2.80292 0.2693,-4.10331 0.54353,-7.24228 0.29881,-3.35283 0.56579,-6.84799 0.56579,-13.11952 0,-10.03067 0.23362,-11.45221 1.94102,-11.81359 1.06755,-0.22593 4.18702,-0.39238 6.93218,-0.3699 4.23676,0.0347 4.99116,0.34589 4.99116,2.05878 0,1.56474 -0.64282,1.95872 -2.86228,1.75428 -2.31851,-0.21354 -2.84528,0.1578 -2.77288,1.95482 0.0621,1.53844 -0.76054,2.43892 -2.68346,2.93768 l -2.77286,0.71925 2.86532,0.10053 c 1.57588,0.0552 3.16362,0.37198 3.52829,0.7037 0.36463,0.33173 0.39444,1.23978 0.0663,2.01792 -0.32824,0.77812 -1.8744,1.41478 -3.43587,1.41478 -1.56151,0 -2.47975,0.32688 -2.04052,0.72642 0.43917,0.39952 1.89493,0.74004 3.235,0.7567 1.41153,0.0176 2.43648,0.66698 2.43648,1.54375 0,0.90097 -1.23433,1.64261 -3.05015,1.83268 -1.67758,0.17559 -3.05017,0.74312 -3.05017,1.26119 0,0.51808 1.24781,0.94194 2.77288,0.94194 2.03343,0 2.77288,0.53811 2.77288,2.01791 0,1.4798 -0.73945,2.01791 -2.77288,2.01791 -1.52507,0 -2.77288,0.3438 -2.77288,0.764 0,0.42018 2.24604,0.60149 4.99117,0.40286 4.45747,-0.32248 4.99118,-0.13448 4.99118,1.75841 0,1.83936 -0.6597,2.1195 -4.99118,2.1195 -2.78481,0 -4.99117,0.47405 -4.99117,1.07238 0,0.5898 1.11073,0.93034 2.46825,0.75671 1.60858,-0.20569 2.59728,0.27395 2.83879,1.37721 0.26239,1.19924 -0.51316,1.78764 -2.66001,2.01791 -1.66678,0.17877 -3.24267,0.91239 -3.5019,1.63024 -0.34174,0.94607 0.32131,1.12419 2.41006,0.64735 2.42001,-0.55254 2.88142,-0.31724 2.88142,1.46941 0,1.72056 -0.67864,2.12729 -3.54928,2.12729 -2.15036,0 -3.13401,0.35907 -2.49558,0.91102 0.57953,0.50106 2.01053,1.0686 3.18006,1.2612 1.16954,0.19258 2.33414,0.9177 2.58803,1.61136 0.30432,0.83185 -0.73408,1.2612 -3.05069,1.2612 -2.31052,0 -3.35471,0.43008 -3.05171,1.2569 0.25337,0.69131 1.41791,1.25886 2.58799,1.2612 1.17009,0.001 2.12745,0.68532 2.12745,1.51771 0,0.923 -1.04888,1.52197 -2.68847,1.53532 -1.47866,0.012 -2.87312,0.52579 -3.0988,1.14165 -0.25509,0.69578 1.34642,1.14182 4.22935,1.17799 2.55183,0.0321 5.13555,0.50935 5.74163,1.06069 0.60612,0.55134 0.8123,1.68912 0.45829,2.52843 -0.51368,1.21769 -1.38225,1.33332 -4.29927,0.57229 -2.01076,-0.52452 -4.5325,-0.95368 -5.60408,-0.95368 -1.07158,0 -1.94832,0.42246 -1.94832,0.93879 0,0.51632 1.123,1.08387 2.49559,1.26119 1.37256,0.17733 2.49559,1.00345 2.49559,1.83584 0,1.04878 -0.93644,1.42428 -3.05018,1.22301 -1.67757,-0.15973 -3.05014,0.14928 -3.05014,0.68655 0,0.53732 1.123,1.12205 2.49558,1.29937 1.37256,0.17732 2.49559,0.99899 2.49559,1.82593 0,0.86339 -1.41667,1.76131 -3.32745,2.109 l -3.32746,0.60548 3.14031,1.17631 c 1.7272,0.64697 2.93141,1.74107 2.67609,2.43129 -0.25958,0.70147 -1.76682,1.1119 -3.41758,0.93054 -1.62435,-0.17846 -2.95338,0.16206 -2.95338,0.75672 0,0.59464 0.99823,1.08117 2.2183,1.08117 1.51689,0 2.21829,0.67264 2.21829,2.12728 0,1.76529 -0.47184,2.01956 -2.77288,1.49421 -1.52508,-0.3482 -2.77287,-0.19712 -2.77287,0.33572 0,0.53284 2.12124,1.34868 4.7139,1.81298 3.67282,0.65774 4.79214,1.33932 5.0683,3.08622 0.1948,1.23314 0.1948,2.23718 0,2.23116 -0.19478,-0.007 -2.65934,-0.64729 -5.47642,-1.42506 l -5.122,-1.41416 -1.25559,3.81226 c -0.69063,2.09678 -1.25563,4.50372 -1.25563,5.3488 0,0.84508 0.87346,1.47344 1.94102,1.39638 1.2529,-0.0904 1.941,0.5752 1.941,1.87777 0,1.56585 -0.64251,1.95867 -2.86819,1.75343 -2.43067,-0.22412 -3.07827,0.31454 -4.24533,3.53134 -0.75742,2.08771 -1.46322,4.22814 -1.56842,4.75651 -0.10533,0.52837 2.05479,1.45816 4.79992,2.06617 3.03907,0.67311 4.99116,1.67312 4.99116,2.55683 0,0.79825 -0.74866,1.54047 -1.66372,1.64937 z m 10.31988,-114.08968 c -1.94947,0.13527 -4.09493,-0.3573 -4.76773,-1.09472 -0.67278,-0.73741 -0.82466,-1.56324 -0.33762,-1.83516 0.48716,-0.2719 2.63263,-0.65286 4.76775,-0.84653 3.22561,-0.29261 3.88203,-0.024 3.88203,1.58912 0,1.4594 -0.8798,2.00232 -3.54454,2.18729 z m 48.42539,0.20752 c -2.15692,0.16516 -4.27816,-0.024 -4.71388,-0.42038 -0.43574,-0.39639 -0.79222,-1.35215 -0.79222,-2.12395 0,-1.02696 1.26415,-1.32009 4.71388,-1.09303 3.2991,0.21714 4.71388,0.76447 4.71388,1.82367 0,1.00331 -1.32185,1.61464 -3.92166,1.81369 z m -48.76288,-6.00589 c -3.81204,0.20463 -4.43659,-0.0517 -4.43659,-1.82065 0,-1.72928 0.71005,-2.05878 4.43659,-2.05878 3.53693,0 4.43658,0.36919 4.43658,1.82064 0,1.41178 -0.99634,1.87414 -4.43658,2.05879 z m 47.69337,0.15639 c -3.69716,0 -4.43659,-0.33631 -4.43659,-2.01791 0,-1.68159 0.73943,-2.01791 4.43659,-2.01791 3.69717,0 4.4366,0.33632 4.4366,2.01791 0,1.6816 -0.73943,2.01791 -4.4366,2.01791 z m -47.97987,-6.24506 c -3.5626,0.26883 -4.15009,0.0189 -4.15009,-1.76568 0,-1.75888 0.69528,-2.07881 4.51789,-2.07881 3.7035,0 4.45166,0.31829 4.1501,1.76567 -0.25719,1.23397 -1.61756,1.85997 -4.5179,2.07882 z m 47.79504,0.19134 c -3.51233,0 -4.25176,-0.35096 -4.25176,-2.01792 0,-1.67235 0.73943,-2.01791 4.31791,-2.01791 2.6812,0 4.54419,0.53629 4.91479,1.41479 0.32824,0.77813 0.29842,1.6862 -0.0663,2.01792 -0.36471,0.33172 -2.57632,0.60312 -4.91477,0.60312 z M 586.35304,349.3718 c -0.45752,0.25004 -7.32521,-2.2023 -10.52788,-4.07927 -3.20267,-1.87697 -8.70711,-5.53184 -8.70711,-6.36921 0,-0.83735 0.72834,-1.52246 1.61852,-1.52246 0.8902,0 6.76898,2.67935 9.53899,4.20135 2.80445,1.54093 8.90936,4.64759 8.90936,5.60172 0,0.94243 -0.37435,1.91796 -0.83188,2.16787 z"
       id="path2020"
       sodipodi:nodetypes="csssscsssssssssssscssssssssssscssssscscsssssscssssscsssssssssscsssscscssssccsssssssssssccsssssssssssssssssssssssssssssssssssssssssssssssssssssssssssssssssssssssscssssssccssssssssssssssssssccsssssscssssssssssssssssssssssssssssscsssssssssssssssscssssssssscsscsssssscssssssccsssssssssssssssssscssccssssssssssssssss" />
    <path
       id="rect4752"
       style="fill:none;stroke:#00ff00;stroke-width:2.66667;stroke-miterlimit:4;stroke-dasharray:none"
       d="m 514.69896,145.30536 h 64 v 24 h -64 z"
       sodipodi:nodetypes="ccccc" />
    <text
       xml:space="preserve"
       style="font-style:normal;font-weight:normal;font-size:19.5556px;line-height:1.25;font-family:sans-serif;letter-spacing:0px;word-spacing:0px;fill:#00ff00;fill-opacity:1;stroke:none;stroke-width:1.33333"
       x="535.46875"
       y="139.46361"
       id="text8017"><tspan
         sodipodi:role="line"
         id="tspan8015"
         x="535.46875"
         y="139.46361"
         style="font-size:19.5556px;fill:#00ff00;fill-opacity:1;stroke-width:1.33333">N<tspan
   style="font-size:14.2223px;fill:#00ff00;fill-opacity:1;stroke-width:1.33333"
   id="tspan14337">2</tspan>%</tspan></text>
    <path
       id="rect4752-3"
       style="fill:none;stroke:#00ff00;stroke-width:2.66667;stroke-miterlimit:4;stroke-dasharray:none"
       d="m 746.69895,145.30536 h 64 v 24 h -64 z"
       sodipodi:nodetypes="ccccc" />
    <path
       id="rect4752-3-5"
       style="fill:none;stroke:#00ff00;stroke-width:2.66667;stroke-miterlimit:4;stroke-dasharray:none"
       d="m 746.69895,251.97263 53.33334,-5.9e-4 v 23.99969 l -53.33334,5.9e-4 z"
       sodipodi:nodetypes="ccccc" />
    <path
       id="rect4752-3-5-1"
       style="fill:none;stroke:#00ff00;stroke-width:2.66667;stroke-miterlimit:4;stroke-dasharray:none"
       d="m 525.36563,251.97263 53.33333,-5.9e-4 v 23.99969 l -53.33333,5.9e-4 z"
       sodipodi:nodetypes="ccccc" />
    <text
       xml:space="preserve"
       style="font-style:normal;font-weight:normal;font-size:19.5556px;line-height:1.25;font-family:sans-serif;letter-spacing:0px;word-spacing:0px;fill:#00ff00;fill-opacity:1;stroke:none;stroke-width:1.33333"
       x="756.80206"
       y="142.13028"
       id="text8017-6"><tspan
         sodipodi:role="line"
         id="tspan8015-7"
         x="756.80206"
         y="142.13028"
         style="font-size:19.5556px;fill:#00ff00;fill-opacity:1;stroke-width:1.33333">N<tspan
   style="font-size:14.2223px;fill:#00ff00;fill-opacity:1;stroke-width:1.33333"
   id="tspan14337-5">2</tspan>%</tspan></text>
    <text
       xml:space="preserve"
       style="font-style:normal;font-weight:normal;font-size:19.5559px;line-height:1.25;font-family:sans-serif;letter-spacing:0px;word-spacing:0px;fill:#00c8ff;fill-opacity:1;stroke:none;stroke-width:1.33335"
       x="758.49567"
       y="246.13286"
       id="text8017-6-6"><tspan
         sodipodi:role="line"
         id="tspan8015-7-2"
         x="758.49567"
         y="246.13286"
         style="font-size:19.5559px;fill:#00c8ff;fill-opacity:1;stroke-width:1.33335">T°</tspan></text>
    <text
       xml:space="preserve"
       style="font-style:normal;font-weight:normal;font-size:19.5559px;line-height:1.25;font-family:sans-serif;letter-spacing:0px;word-spacing:0px;fill:#00c8ff;fill-opacity:1;stroke:none;stroke-width:1.33335"
       x="556.83386"
       y="246.13286"
       id="text8017-6-6-2"><tspan
         sodipodi:role="line"
         id="tspan8015-7-2-7"
         x="556.83386"
         y="246.13286"
         style="font-size:19.5559px;fill:#00c8ff;fill-opacity:1;stroke-width:1.33335">T°</tspan></text>
    <text
       xml:space="preserve"
       style="font-style:normal;font-weight:normal;font-size:19.5556px;line-height:1.25;font-family:sans-serif;letter-spacing:0px;word-spacing:0px;fill:#00ff00;fill-opacity:1;stroke:none;stroke-width:1.33333"
       x="708.87756"
       y="331.54105"
       id="text8017-7"><tspan
         sodipodi:role="line"
         id="tspan8015-5"
         x="708.87756"
         y="331.54105"
         style="font-size:19.5556px;fill:#00ff00;fill-opacity:1;stroke-width:1.33333"><tspan
           style="font-size:14.2223px;fill:#00ff00;fill-opacity:1;stroke-width:1.33333"
           id="tspan14337-3">2</tspan></tspan></text>
    <text
       xml:space="preserve"
       style="font-style:normal;font-weight:normal;font-size:19.5556px;line-height:1.25;font-family:sans-serif;letter-spacing:0px;word-spacing:0px;fill:#00ff00;fill-opacity:1;stroke:none;stroke-width:1.33333"
       x="610.25195"
       y="329.86273"
       id="text8017-7-5"><tspan
         sodipodi:role="line"
         id="tspan8015-5-6"
         x="610.25195"
         y="329.86273"
         style="font-size:19.5556px;fill:#00ff00;fill-opacity:1;stroke-width:1.33333"><tspan
           style="font-size:14.2223px;fill:#00ff00;fill-opacity:1;stroke-width:1.33333"
           id="tspan14337-3-2">2</tspan></tspan></text>
    <text
       xml:space="preserve"
       style="font-style:normal;font-weight:normal;font-size:19.5556px;line-height:1.25;font-family:sans-serif;letter-spacing:0px;word-spacing:0px;fill:#00ff00;fill-opacity:1;stroke:none;stroke-width:1.33333"
       x="591.06348"
       y="354.33954"
       id="text8017-7-9"><tspan
         sodipodi:role="line"
         id="tspan8015-5-1"
         x="591.06348"
         y="354.33954"
         style="font-size:19.5556px;fill:#00ff00;fill-opacity:1;stroke-width:1.33333">0<tspan
   style="font-size:14.2223px;fill:#00ff00;fill-opacity:1;stroke-width:1.33333"
   id="tspan14337-3-27" /></tspan></text>
    <text
       xml:space="preserve"
       style="font-style:normal;font-weight:normal;font-size:19.5556px;line-height:1.25;font-family:sans-serif;letter-spacing:0px;word-spacing:0px;fill:#00ff00;fill-opacity:1;stroke:none;stroke-width:1.33333"
       x="724.04523"
       y="356.88113"
       id="text8017-7-9-0"><tspan
         sodipodi:role="line"
         id="tspan8015-5-1-9"
         x="724.04523"
         y="356.88113"
         style="font-size:19.5556px;fill:#00ff00;fill-opacity:1;stroke-width:1.33333">0<tspan
   style="font-size:14.2223px;fill:#00ff00;fill-opacity:1;stroke-width:1.33333"
   id="tspan14337-3-27-3" /></tspan></text>
    <text
       xml:space="preserve"
       style="font-style:normal;font-weight:normal;font-size:19.5556px;line-height:1.25;font-family:sans-serif;letter-spacing:0px;word-spacing:0px;fill:#00ff00;fill-opacity:1;stroke:none;stroke-width:1.33333"
       x="624.60815"
       y="302.33322"
       id="text8017-7-9-6"><tspan
         sodipodi:role="line"
         id="tspan8015-5-1-0"
         x="624.60815"
         y="302.33322"
         style="font-size:19.5556px;fill:#00ff00;fill-opacity:1;stroke-width:1.33333">4</tspan></text>
    <text
       xml:space="preserve"
       style="font-style:normal;font-weight:normal;font-size:19.5556px;line-height:1.25;font-family:sans-serif;letter-spacing:0px;word-spacing:0px;fill:#00ff00;fill-opacity:1;stroke:none;stroke-width:1.33333"
       x="690.68579"
       y="305.11618"
       id="text8017-7-9-6-2"><tspan
         sodipodi:role="line"
         id="tspan8015-5-1-0-6"
         x="690.68579"
         y="305.11618"
         style="font-size:19.5556px;fill:#00ff00;fill-opacity:1;stroke-width:1.33333">4</tspan></text>
    <text
       xml:space="preserve"
       style="font-style:normal;font-weight:normal;font-size:19.5556px;line-height:1.25;font-family:sans-serif;letter-spacing:0px;word-spacing:0px;fill:#00ff00;fill-opacity:1;stroke:none;stroke-width:1.33333"
       x="679.05933"
       y="275.13211"
       id="text8017-7-9-6-1"><tspan
         sodipodi:role="line"
         id="tspan8015-5-1-0-8"
         x="679.05933"
         y="275.13211"
         style="font-size:19.5556px;fill:#00ff00;fill-opacity:1;stroke-width:1.33333">6</tspan></text>
    <text
       xml:space="preserve"
       style="font-style:normal;font-weight:normal;font-size:19.5556px;line-height:1.25;font-family:sans-serif;letter-spacing:0px;word-spacing:0px;fill:#00ff00;fill-opacity:1;stroke:none;stroke-width:1.33333"
       x="633.47119"
       y="274.52017"
       id="text8017-7-9-6-7"><tspan
         sodipodi:role="line"
         id="tspan8015-5-1-0-9"
         x="633.47119"
         y="274.52017"
         style="font-size:19.5556px;fill:#00ff00;fill-opacity:1;stroke-width:1.33333">6</tspan></text>
    <text
       xml:space="preserve"
       style="font-style:normal;font-weight:normal;font-size:19.5556px;line-height:1.25;font-family:sans-serif;letter-spacing:0px;word-spacing:0px;fill:#00ff00;fill-opacity:1;stroke:none;stroke-width:1.33333"
       x="656.41821"
       y="246.98375"
       id="text8017-7-9-6-20"><tspan
         sodipodi:role="line"
         id="tspan8015-5-1-0-2"
         x="656.41821"
         y="246.98375"
         style="font-size:19.5556px;fill:#00ff00;fill-opacity:1;stroke-width:1.33333">7</tspan></text>
    <text
       xml:space="preserve"
       style="font-style:normal;font-weight:normal;font-size:19.5556px;line-height:1.25;font-family:sans-serif;letter-spacing:0px;word-spacing:0px;fill:#00ff00;fill-opacity:1;stroke:none;stroke-width:1.33333"
       x="656.11224"
       y="220.36517"
       id="text8017-7-9-6-3"><tspan
         sodipodi:role="line"
         id="tspan8015-5-1-0-7"
         x="656.11224"
         y="220.36517"
         style="font-size:19.5556px;fill:#00ff00;fill-opacity:1;stroke-width:1.33333">8</tspan></text>
    <text
       xml:space="preserve"
       style="font-style:normal;font-weight:normal;font-size:19.5556px;line-height:1.25;font-family:sans-serif;letter-spacing:0px;word-spacing:0px;fill:#00ff00;fill-opacity:1;stroke:none;stroke-width:1.33333"
       x="657.03015"
       y="193.13475"
       id="text8017-7-9-6-5"><tspan
         sodipodi:role="line"
         id="tspan8015-5-1-0-92"
         x="657.03015"
         y="193.13475"
         style="font-size:19.5556px;fill:#00ff00;fill-opacity:1;stroke-width:1.33333">9</tspan></text>
    <text
       xml:space="preserve"
       style="font-style:normal;font-weight:normal;font-size:19.5556px;line-height:1.25;font-family:sans-serif;letter-spacing:0px;word-spacing:0px;fill:#00ff00;fill-opacity:1;stroke:none;stroke-width:1.33333"
       x="649.77405"
       y="167.43407"
       id="text8017-7-9-6-28"><tspan
         sodipodi:role="line"
         id="tspan8015-5-1-0-97"
         x="649.77405"
         y="167.43407"
         style="font-size:19.5556px;fill:#00ff00;fill-opacity:1;stroke-width:1.33333">10</tspan></text>
    <path
       style="fill:none;stroke:#fdfffd;stroke-width:2.66667;stroke-linecap:butt;stroke-linejoin:miter;stroke-miterlimit:4;stroke-dasharray:none;stroke-opacity:1"
       d="m 690.69896,139.97203 14.66666,-10.66667 v 5.33334 h 16 v 10.66666 h -16 v 5.33334 z"
       id="path17340"
       sodipodi:nodetypes="cccccccc" />
    <path
       style="fill:none;stroke:#fefffe;stroke-width:2.6624;stroke-linecap:butt;stroke-linejoin:miter;stroke-miterlimit:4;stroke-dasharray:none;stroke-opacity:1"
       d="m 633.87084,140.37862 -14.70235,-10.60679 v 5.3034 H 603.12956 V 145.682 h 16.03893 v 5.3034 z"
       id="path17340-3"
       sodipodi:nodetypes="cccccccc" />
    <g
       id="g22468"
       transform="matrix(1.3333333,0,0,1.3333333,0.03230671,-0.02796707)">
      <path
         style="fill:none;stroke:#00fd00;stroke-width:1.99967;stroke-linecap:butt;stroke-linejoin:miter;stroke-miterlimit:4;stroke-dasharray:none;stroke-opacity:1"
         d="m 718,294.9531 h 19.00017 V 156.99984 H 723.00004 V 294.9531"
         id="path1005-3"
         sodipodi:nodetypes="ccccc" />
      <path
         style="fill:none;stroke:#00fe00;stroke-width:2;stroke-linecap:butt;stroke-linejoin:miter;stroke-miterlimit:4;stroke-dasharray:none;stroke-opacity:1"
         d="M 727.5,156 V 295"
         id="path22135-1"
         sodipodi:nodetypes="cc" />
      <path
         style="fill:none;stroke:#00fe00;stroke-width:2;stroke-linecap:butt;stroke-linejoin:miter;stroke-miterlimit:4;stroke-dasharray:none;stroke-opacity:1"
         d="m 732,156.5 v 139"
         id="path22135-1-2"
         sodipodi:nodetypes="cc" />
      <path
         style="fill:none;stroke:#00fd00;stroke-width:2;stroke-linecap:butt;stroke-linejoin:miter;stroke-miterlimit:4;stroke-dasharray:none;stroke-opacity:1"
         d="M 693,295 H 674 V 157 h 14 v 138"
         id="path1005"
         sodipodi:nodetypes="ccccc" />
      <path
         style="fill:none;stroke:#00fe00;stroke-width:2;stroke-linecap:butt;stroke-linejoin:miter;stroke-miterlimit:4;stroke-dasharray:none;stroke-opacity:1"
         d="M 678.5,156 V 295"
         id="path22135"
         sodipodi:nodetypes="cc" />
      <path
         style="fill:none;stroke:#00fe00;stroke-width:2;stroke-linecap:butt;stroke-linejoin:miter;stroke-miterlimit:4;stroke-dasharray:none;stroke-opacity:1"
         d="M 683.5,156 V 295"
         id="path22135-6"
         sodipodi:nodetypes="cc" />
    </g>
  </g>
</svg>
