<?xml version="1.0" encoding="UTF-8" standalone="no"?>
<!-- Created with Inkscape (http://www.inkscape.org/) -->

<svg
   version="1.1"
   id="svg2"
   width="1024"
   height="768"
   viewBox="0 0 1024 768.00001"
   sodipodi:docname="map.svg"
   inkscape:version="1.1.2 (0a00cf5339, 2022-02-04)"
   xmlns:inkscape="http://www.inkscape.org/namespaces/inkscape"
   xmlns:sodipodi="http://sodipodi.sourceforge.net/DTD/sodipodi-0.dtd"
   xmlns="http://www.w3.org/2000/svg"
   xmlns:svg="http://www.w3.org/2000/svg">
  <defs
     id="defs6" />
  <sodipodi:namedview
     id="namedview4"
     pagecolor="#5d5d5d"
     bordercolor="#666666"
     borderopacity="1.0"
     inkscape:pageshadow="2"
     inkscape:pageopacity="0"
     inkscape:pagecheckerboard="0"
     showgrid="false"
     inkscape:zoom="0.64868595"
     inkscape:cx="483.28471"
     inkscape:cy="300.60771"
     inkscape:window-width="1920"
     inkscape:window-height="1016"
     inkscape:window-x="0"
     inkscape:window-y="0"
     inkscape:window-maximized="1"
     inkscape:current-layer="g1546"
     showguides="true"
     inkscape:guide-bbox="true">
    <sodipodi:guide
       position="512.0035,605.33416"
       orientation="1,0"
       id="guide960" />
    <sodipodi:guide
       position="356.0494,383.99949"
       orientation="0,-1"
       id="guide962" />
  </sodipodi:namedview>
  <g
     inkscape:groupmode="layer"
     inkscape:label="Image"
     id="g8">
    <g
       id="g1546">
      <path
         id="path978"
         style="fill:none;stroke:#fffdff;stroke-width:2;stroke-linecap:round;stroke-linejoin:round;stroke-miterlimit:4;stroke-dasharray:none;stroke-opacity:1"
         d="m 512.00006,315 c 37.57644,0 69.00006,31.42358 69.00006,69.00006 0,37.57647 -31.42362,69.00006 -69.00006,69.00006 C 474.42356,453.00012 443,421.57653 443,384.00006 443,346.42358 474.42356,315 512.00006,315"
         sodipodi:nodetypes="csssc" />
      <path
         id="path927"
         style="fill:none;stroke:#fffdff;stroke-width:2;stroke-linecap:round;stroke-linejoin:round;stroke-miterlimit:4;stroke-dasharray:none;stroke-opacity:1"
         d="M 512.00001,247.5 C 586.33593,247.5 648.5,309.66401 648.5,384.00005 648.5,458.33604 586.33593,520.50006 512.00001,520.50006 437.66395,520.50006 375.5,458.33604 375.5,384.00005 375.5,309.66401 437.66395,247.5 512.00001,247.5"
         sodipodi:nodetypes="csssc" />
      <path
         id="path978-6"
         style="fill:none;stroke:#fffdff;stroke-width:2;stroke-linecap:round;stroke-linejoin:round;stroke-miterlimit:4;stroke-dasharray:none;stroke-opacity:1"
         d="m 512,180 c 111.09554,0 204.00002,92.90439 204.00002,204 0,111.09556 -92.90448,204.00002 -204.00002,204.00002 -111.09559,0 -204,-92.90446 -204,-204.00002 0,-111.09561 92.90441,-204 204,-204"
         sodipodi:nodetypes="csssc" />
      <path
         id="path978-3"
         style="fill:#ffffff;fill-opacity:1;stroke:none;stroke-width:0.2;stroke-linecap:round;stroke-linejoin:round;stroke-miterlimit:4;stroke-dasharray:none;stroke-opacity:1"
         d="m 512,374 c 5.44584,0 10,4.55412 10,10 0,5.44588 -4.55416,10 -10,10 -5.44588,0 -10,-4.55412 -10,-10 0,-5.44588 4.55412,-10 10,-10"
         sodipodi:nodetypes="csssc" />
      <path
         id="path978-6-3"
         style="fill:none;stroke:#fffdff;stroke-width:2;stroke-linecap:round;stroke-linejoin:round;stroke-miterlimit:4;stroke-dasharray:none;stroke-opacity:1"
         d="m 512,112.5 c 147.85505,0 271.5,123.64485 271.5,271.49998 0,147.85504 -123.64495,271.50001 -271.5,271.50001 -147.85513,0 -271.5,-123.64493 -271.5,-271.50001 C 240.5,236.14485 364.14487,112.5 512,112.5"
         sodipodi:nodetypes="csssc" />
      <path
         id="path1021"
         style="fill:none;stroke:#fffdff;stroke-width:2;stroke-linecap:round;stroke-linejoin:round;stroke-miterlimit:4;stroke-dasharray:none;stroke-opacity:1"
         d="m 512,45.000002 c 184.6146,0 339,154.385278 339,338.999978 0,184.61458 -154.3854,339.00001 -339,339.00001 -184.6147,0 -339,-154.38538 -339,-339.00001 0,-184.6147 154.3853,-338.999978 339,-338.999978"
         sodipodi:nodetypes="csssc" />
      <path
         style="fill:none;stroke:#ffffff;stroke-width:2;stroke-linecap:butt;stroke-linejoin:miter;stroke-miterlimit:4;stroke-dasharray:none;stroke-opacity:1"
         d="M 30,384 H 994"
         id="path951"
         sodipodi:nodetypes="cc" />
      <path
         style="fill:none;stroke:#ffffff;stroke-width:2;stroke-linecap:butt;stroke-linejoin:miter;stroke-miterlimit:4;stroke-dasharray:none;stroke-opacity:1"
         d="M 512,30 V 738"
         id="path953"
         sodipodi:nodetypes="cc" />
    </g>
    <path
       id="rect1104"
       style="fill:none;fill-opacity:1;stroke:#faff00;stroke-width:3;stroke-linecap:square;stroke-miterlimit:4;stroke-dasharray:none;stroke-opacity:1"
       d="M 30,30 H 994 V 738 H 30 Z"
       sodipodi:nodetypes="ccccc" />
  </g>
</svg>
