<?xml version="1.0" encoding="UTF-8" standalone="no"?>
<!-- Created with Inkscape (http://www.inkscape.org/) -->

<svg
   version="1.1"
   id="svg2"
   width="1024"
   height="768"
   viewBox="0 0 1024 768.00001"
   sodipodi:docname="refueling.svg"
   inkscape:version="1.1.2 (0a00cf5339, 2022-02-04)"
   xmlns:inkscape="http://www.inkscape.org/namespaces/inkscape"
   xmlns:sodipodi="http://sodipodi.sourceforge.net/DTD/sodipodi-0.dtd"
   xmlns="http://www.w3.org/2000/svg"
   xmlns:svg="http://www.w3.org/2000/svg">
  <defs
     id="defs6" />
  <sodipodi:namedview
     id="namedview4"
     pagecolor="#5d5d5d"
     bordercolor="#666666"
     borderopacity="1.0"
     inkscape:pageshadow="2"
     inkscape:pageopacity="0"
     inkscape:pagecheckerboard="0"
     showgrid="false"
     inkscape:zoom="0.50078244"
     inkscape:cx="389.39065"
     inkscape:cy="303.52502"
     inkscape:window-width="1920"
     inkscape:window-height="1016"
     inkscape:window-x="0"
     inkscape:window-y="0"
     inkscape:window-maximized="1"
     inkscape:current-layer="g8"
     showguides="true"
     inkscape:guide-bbox="true" />
  <g
     inkscape:groupmode="layer"
     inkscape:label="Image"
     id="g8">
    <path
       style="fill:#00fe00;fill-opacity:1;stroke:none;stroke-width:1.05787"
       d="m 755.48463,682.64831 c -2.95242,2.09688 -11.59475,8.52862 -13.06507,8.52862 -1.54805,0 -2.67325,-0.59272 -2.67325,-1.40824 0,-0.77454 2.39961,-2.80902 5.33244,-4.52098 2.93284,-1.71197 6.35774,-4.14297 7.61094,-5.4022 1.25318,-1.2592 1.93702,-0.21854 2.84459,0.28736 m -159.70018,-1.7369 c -0.45752,0.25004 -3.45222,-1.08132 -6.65488,-2.9583 -3.20267,-1.87697 -5.82303,-4.09776 -5.82303,-4.93513 0,-0.83735 0.72833,-1.52245 1.61852,-1.52245 0.8902,0 3.88489,1.24526 6.65491,2.76726 2.80445,1.54094 5.03636,3.52662 5.03636,4.48075 0,0.94243 -0.37435,1.91796 -0.83188,2.16787 z m 139.11858,0.67365 c -0.2104,0 -0.71533,-0.30267 -1.12204,-0.67263 -0.40668,-0.36996 -0.73943,-1.23921 -0.73943,-1.93164 0,-0.69245 2.33996,-2.44869 5.19991,-3.90276 2.85993,-1.45405 5.85463,-2.41517 6.65488,-2.13582 0.80025,0.27934 1.44603,0.86266 1.43507,1.29629 -0.0107,0.4336 -2.50075,2.26396 -5.53286,4.06748 -3.03213,1.80351 -5.6851,3.27908 -5.89553,3.27908 z m -8.9686,-13.1164 c -0.28943,0 -0.83447,-0.45403 -1.21148,-1.00895 -0.377,-0.55493 -0.40176,-1.42657 -0.0551,-1.93698 0.34678,-0.5104 2.93468,-2.09951 5.7509,-3.53134 2.81621,-1.43184 5.55666,-2.60333 6.08985,-2.60333 0.5332,0 0.96944,0.9004 0.96944,2.00093 0,1.38583 -1.69348,2.78152 -5.50887,4.54028 -3.02984,1.39666 -5.74553,2.53939 -6.03484,2.53939 z m -122.9405,-1.02555 c -0.76255,-0.009 -3.33506,-1.03069 -5.7167,-2.27014 -2.38161,-1.23947 -4.85956,-3.02632 -5.50652,-3.97083 -0.64692,-0.94452 -0.78997,-2.06867 -0.31782,-2.49815 0.4721,-0.42948 3.57396,0.51246 6.89294,2.0932 4.0418,1.925 6.03452,3.49956 6.03452,4.7683 0,1.04181 -0.62389,1.88674 -1.38642,1.87762 z m 115.29586,-12.09086 c -0.22357,0 -0.73931,-0.30268 -1.14604,-0.67264 -0.40667,-0.36994 -0.73941,-1.24474 -0.73941,-1.94394 0,-0.69921 2.80545,-2.43966 6.23434,-3.86766 3.42891,-1.42799 6.4236,-2.59635 6.6549,-2.59635 0.23118,0 0.42054,0.90042 0.42054,2.00092 0,1.38583 -1.69346,2.78152 -5.50886,4.54028 -3.0299,1.39667 -5.69183,2.53939 -5.91547,2.53939 z M 610.8076,651.79943 c -0.76253,-0.0157 -3.63245,-1.07061 -6.3776,-2.34438 -3.36612,-1.56192 -5.11182,-3.06752 -5.3618,-4.62424 -0.2038,-1.26956 0.0457,-2.11913 0.55459,-1.88793 0.50885,0.23121 3.54556,1.47738 6.74823,2.76929 4.02274,1.62272 5.82302,2.93118 5.82302,4.23232 0,1.03584 -0.6239,1.87057 -1.38644,1.85494 z m 99.71632,-12.07902 c -0.39863,0 -0.72483,-0.907 -0.72483,-2.01552 0,-1.4332 1.67524,-2.75068 5.79836,-4.56005 3.18912,-1.39951 6.42495,-2.32583 7.19079,-2.0585 0.76581,0.26731 1.09285,1.19611 0.72676,2.06394 -0.36609,0.86786 -3.27577,2.70117 -6.46591,4.07404 -3.19016,1.37284 -6.12649,2.49609 -6.52517,2.49609 z m -92.98426,-1.09856 c -0.80498,-0.0493 -3.81852,-1.07087 -6.69674,-2.27016 -2.87824,-1.19928 -5.51496,-2.82399 -5.85937,-3.61044 -0.34455,-0.78644 -0.23569,-1.7746 0.24192,-2.19589 0.47753,-0.4213 3.61337,0.29282 6.96853,1.58696 4.2661,1.64546 6.20691,2.9883 6.45478,4.46604 0.21281,1.2695 -0.22982,2.07732 -1.10915,2.02349 z m 87.57717,-13.19513 c -0.47427,0.18485 -1.17379,-0.40226 -1.55447,-1.30472 -0.38072,-0.90247 -0.38252,-1.92255 -0.004,-2.26686 0.37848,-0.34429 3.254,-1.44796 6.38999,-2.45258 3.136,-1.00462 6.13226,-1.5846 6.6583,-1.28884 0.5261,0.29574 0.95651,1.10229 0.95651,1.7923 0,0.69002 -2.6064,2.13883 -5.792,3.21956 -3.18563,1.08075 -6.18005,2.11624 -6.65431,2.30114 z m -81.83129,-1.20006 c -0.91506,0.0949 -3.90976,-0.63946 -6.65491,-1.63214 -2.74513,-0.99266 -5.15255,-2.53975 -5.34976,-3.43799 -0.26445,-1.20439 0.46345,-1.6204 2.77287,-1.58467 1.72229,0.0264 4.87838,0.82548 7.0135,1.77516 2.1351,0.94967 3.882,2.39726 3.882,3.21682 0,0.81958 -0.74866,1.56785 -1.6637,1.66282 z m 41.2949,-10.95809 c -10.54654,0.24085 -12.60349,0.0372 -13.1695,-1.30471 -0.36894,-0.87458 -0.35479,-1.87762 0.0312,-2.22894 0.38622,-0.35135 6.3125,-0.63431 13.16954,-0.62879 11.54259,0.009 12.46727,0.15347 12.46727,1.94348 0,1.77409 -1.03051,1.95703 -12.49872,2.21896 z m 34.58924,-1.79971 c -0.0509,4.4e-4 -0.42515,-0.30186 -0.83185,-0.67182 -0.4067,-0.36995 -0.73942,-1.2279 -0.73942,-1.90655 0,-0.67865 2.24602,-1.83717 4.99115,-2.57449 2.74515,-0.73734 4.99117,-1.61463 4.99117,-1.94954 0,-0.33493 -0.79342,-2.72716 -1.76313,-5.31608 -1.56157,-4.16896 -2.00804,-4.5879 -3.90497,-3.6644 -1.17799,0.57347 -2.63058,0.76788 -3.22799,0.43202 -0.59747,-0.33588 -1.08623,-1.04916 -1.08623,-1.58507 0,-0.53591 1.24778,-1.40595 2.77286,-1.93339 1.52508,-0.52745 2.77288,-1.11638 2.77288,-1.30873 0,-0.19236 -0.78062,-2.43369 -1.73468,-4.98079 -1.71616,-4.58168 -1.77239,-4.62042 -5.26846,-3.62941 -1.94357,0.55093 -4.40724,1.24491 -5.47478,1.54217 -1.42051,0.39554 -1.94102,-0.0271 -1.94102,-1.57589 0,-1.37857 0.86999,-2.28523 2.49559,-2.60077 1.37257,-0.26643 3.45245,-0.6156 4.62196,-0.77595 1.16953,-0.16032 2.34137,-0.87887 2.60413,-1.59672 0.34662,-0.94671 -0.31368,-1.12451 -2.40366,-0.64733 -2.43395,0.55569 -2.88143,0.32064 -2.88143,-1.51366 0,-1.4634 0.59544,-2.07485 1.82595,-1.87505 1.00425,0.16307 2.06165,-0.31896 2.34973,-1.07115 0.40167,-1.04881 -0.28249,-1.20652 -2.93511,-0.67656 -3.00702,0.60082 -3.45886,0.41702 -3.45886,-1.407 0,-1.42544 0.71116,-2.09806 2.21829,-2.09806 1.22007,0 2.21829,-0.45404 2.21829,-1.00895 0,-0.55493 -1.24778,-1.00896 -2.77285,-1.00896 -1.62935,0 -2.77288,-0.57904 -2.77288,-1.40405 0,-0.77224 1.26821,-1.6936 2.81824,-2.04751 1.55,-0.35388 2.56016,-1.02325 2.24479,-1.48748 -0.31543,-0.46424 -1.83319,-0.62501 -3.37283,-0.35728 -2.11039,0.36697 -2.79935,0.0621 -2.79935,-1.23872 0,-0.94903 0.99823,-1.96299 2.2183,-2.25321 1.22006,-0.29023 2.21829,-0.96486 2.21829,-1.49914 0,-0.57301 -1.47845,-0.67221 -3.60473,-0.24185 -1.9826,0.40127 -4.3534,0.77788 -5.26846,0.83689 -0.96361,0.0621 -1.66372,-0.74188 -1.66372,-1.91062 0,-1.10986 0.6239,-2.07467 1.38644,-2.14403 0.76254,-0.0693 3.17494,-0.18288 5.3609,-0.25224 2.64612,-0.0839 3.81852,-0.54763 3.50794,-1.38731 -0.26168,-0.70776 -1.76249,-1.11881 -3.41988,-0.93674 -2.01524,0.22141 -2.95338,-0.14446 -2.95338,-1.15183 0,-0.81193 1.26822,-1.7658 2.81825,-2.11968 1.55,-0.35391 2.56016,-1.02328 2.24477,-1.48751 -0.31541,-0.46422 -1.8828,-0.61638 -3.4831,-0.3381 -2.39494,0.41646 -2.83908,0.1694 -2.51072,-1.3965 0.22078,-1.05338 1.50764,-2.04637 2.88316,-2.22488 1.36633,-0.17732 2.48424,-0.76205 2.48424,-1.29938 0,-0.53732 -1.35482,-0.84628 -3.01075,-0.68654 -2.13871,0.2063 -3.12603,-0.221 -3.40876,-1.47525 -0.29705,-1.31797 0.3258,-1.76567 2.45619,-1.76567 1.74316,0 2.85417,-0.56486 2.85417,-1.45114 0,-0.95204 -1.03407,-1.38582 -3.00669,-1.26119 -2.07824,0.1312 -3.13086,-0.35529 -3.40876,-1.57573 -0.31368,-1.37792 0.34661,-1.76566 3.00669,-1.76566 1.87481,0 3.40876,-0.48833 3.40876,-1.08517 0,-0.66381 -2.04557,-0.96927 -5.26845,-0.78671 -4.76317,0.26984 -5.30347,0.0764 -5.63351,-2.0155 -0.34802,-2.20604 -0.12826,-2.28164 4.71389,-1.62111 3.98096,0.54305 5.07892,0.38683 5.07892,-0.72269 0,-0.88122 -1.15133,-1.40052 -3.05016,-1.37575 -1.99128,0.0259 -3.05016,-0.48565 -3.05016,-1.47367 0,-0.90097 1.23431,-1.64262 3.05016,-1.83268 1.6776,-0.1756 3.05016,-0.74312 3.05016,-1.2612 0,-0.51806 -1.53396,-0.94194 -3.40876,-0.94194 -2.65405,0 -3.32331,-0.39092 -3.02281,-1.76566 0.25685,-1.175 1.21168,-1.66009 2.85417,-1.45001 1.35755,0.1736 2.46826,-0.16693 2.46826,-0.75673 0,-0.5898 -1.28439,-1.07236 -2.8542,-1.07236 -2.1236,0 -2.75695,-0.45197 -2.47427,-1.76567 0.23917,-1.11169 1.31328,-1.71965 2.89975,-1.64144 1.41156,0.0696 2.33784,-0.37225 2.10609,-1.00468 -0.22737,-0.6209 -1.37101,-1.13084 -2.54111,-1.13318 -1.1701,-10e-4 -2.12744,-0.64204 -2.12744,-1.42152 0,-0.7795 0.91918,-1.53998 2.04264,-1.68998 1.12346,-0.15005 2.37126,-0.59196 2.77287,-0.98218 0.40161,-0.3902 -1.64056,-0.39644 -4.53823,-0.014 -4.82851,0.63749 -5.26843,0.52192 -5.26843,-1.38416 0,-1.86578 0.67446,-2.07968 6.55738,-2.07968 h 6.55739 l 0.5177,3.78357 c 0.28456,2.08096 0.58531,8.09685 0.66802,13.36864 0.0828,5.2718 0.90714,14.80641 1.8321,21.18804 0.92496,6.38165 1.85195,12.51104 2.06003,13.62089 0.20797,1.10984 1.46928,6.78521 2.80272,12.61192 1.33347,5.82672 3.18091,13.0912 4.1054,16.14328 0.92452,3.05209 3.17833,9.7364 5.00851,14.85401 1.83016,5.11763 3.16624,10.27391 2.96908,11.45839 -0.2558,1.5372 -1.94587,2.70019 -5.90422,4.06308 -3.05014,1.05019 -5.58733,1.9098 -5.63817,1.91025 z m -70.33848,-1.34224 c -0.91505,0.10894 -3.82122,-0.50124 -6.45818,-1.35589 -2.63696,-0.85464 -5.03116,-2.11503 -5.32048,-2.80081 -0.28943,-0.68583 0.53457,-4.60976 1.83081,-8.71986 1.29625,-4.1101 4.02688,-13.60232 6.06809,-21.0938 2.04118,-7.49148 4.22935,-16.79908 4.86262,-20.68356 0.63324,-3.88448 1.66938,-10.32834 2.30254,-14.31972 0.63315,-3.99136 0.78111,-8.17942 1.15119,-10.68625 0.23157,-2.80292 0.26931,-4.10331 0.54353,-7.24228 0.29882,-3.35283 0.56579,-6.84799 0.56579,-13.11952 0,-10.03066 0.23363,-11.45221 1.94103,-11.81358 1.06754,-0.22594 4.18701,-0.39239 6.93217,-0.36991 4.23676,0.0347 4.99116,0.34589 4.99116,2.05879 0,1.56473 -0.64281,1.95872 -2.86228,1.75428 -2.31851,-0.21355 -2.84528,0.1578 -2.77288,1.95481 0.0621,1.53844 -0.76053,2.43892 -2.68345,2.93768 l -2.77287,0.71925 2.86532,0.10054 c 1.57588,0.0552 3.16363,0.37197 3.52829,0.70369 0.36463,0.33173 0.39444,1.23979 0.0663,2.01792 -0.32824,0.77812 -1.8744,1.41478 -3.43587,1.41478 -1.5615,0 -2.47974,0.32688 -2.04052,0.72642 0.43918,0.39952 1.89494,0.74004 3.235,0.7567 1.41154,0.0176 2.43648,0.66698 2.43648,1.54375 0,0.90097 -1.23433,1.64261 -3.05014,1.83268 -1.67759,0.17559 -3.05018,0.74312 -3.05018,1.26119 0,0.51808 1.24782,0.94194 2.77288,0.94194 2.03343,0 2.77288,0.53811 2.77288,2.01791 0,1.4798 -0.73945,2.01791 -2.77288,2.01791 -1.52506,0 -2.77288,0.3438 -2.77288,0.764 0,0.42018 2.24604,0.60149 4.99118,0.40286 4.45746,-0.32248 4.99117,-0.13448 4.99117,1.75842 0,1.83936 -0.65969,2.11949 -4.99117,2.11949 -2.78482,0 -4.99118,0.47405 -4.99118,1.07239 0,0.5898 1.11074,0.93033 2.46826,0.7567 1.60857,-0.20569 2.59728,0.27395 2.83878,1.37722 0.26239,1.19924 -0.51316,1.78764 -2.66001,2.0179 -1.66677,0.17878 -3.24267,0.91239 -3.50189,1.63024 -0.34175,0.94607 0.3213,1.12419 2.41005,0.64735 2.42001,-0.55253 2.88143,-0.31724 2.88143,1.46941 0,1.72056 -0.67864,2.1273 -3.54928,2.1273 -2.15036,0 -3.13402,0.35906 -2.49559,0.91101 0.57953,0.50107 2.01053,1.0686 3.18007,1.2612 1.16953,0.19259 2.33413,0.91771 2.58802,1.61136 0.30432,0.83185 -0.73408,1.2612 -3.05069,1.2612 -2.31052,0 -3.35471,0.43008 -3.05171,1.25691 0.25338,0.6913 1.41791,1.25885 2.58799,1.2612 1.17009,10e-4 2.12745,0.68532 2.12745,1.5177 0,0.923 -1.04888,1.52198 -2.68846,1.53532 -1.47867,0.012 -2.87312,0.52579 -3.0988,1.14166 -0.2551,0.69577 1.34641,1.14181 4.22934,1.17798 2.55183,0.0321 5.13555,0.50935 5.74163,1.0607 0.60612,0.55133 0.81231,1.68912 0.45829,2.52842 -0.51368,1.2177 -1.38225,1.33332 -4.29926,0.5723 -2.01076,-0.52452 -4.53251,-0.95368 -5.60408,-0.95368 -1.07159,0 -1.94832,0.42245 -1.94832,0.93878 0,0.51632 1.123,1.08387 2.49558,1.26119 1.37256,0.17733 2.49559,1.00345 2.49559,1.83584 0,1.04879 -0.93644,1.42428 -3.05017,1.22301 -1.67758,-0.15973 -3.05015,0.14928 -3.05015,0.68655 0,0.53732 1.123,1.12205 2.49559,1.29937 1.37256,0.17732 2.49558,0.99899 2.49558,1.82594 0,0.86338 -1.41666,1.7613 -3.32745,2.109 l -3.32745,0.60548 3.1403,1.1763 c 1.7272,0.64698 2.93142,1.74107 2.6761,2.4313 -0.25959,0.70146 -1.76683,1.11189 -3.41759,0.93053 -1.62435,-0.17845 -2.95337,0.16207 -2.95337,0.75672 0,0.59464 0.99822,1.08117 2.21829,1.08117 1.51689,0 2.21829,0.67264 2.21829,2.12728 0,1.7653 -0.47184,2.01956 -2.77288,1.49422 -1.52508,-0.3482 -2.77286,-0.19712 -2.77286,0.33572 0,0.53284 2.12124,1.34868 4.71389,1.81297 3.67283,0.65775 4.79215,1.33932 5.06831,3.08623 0.1948,1.23313 0.1948,2.23717 0,2.23116 -0.19479,-0.007 -2.65935,-0.6473 -5.47643,-1.42507 l -5.122,-1.41416 -1.25559,3.81227 c -0.69062,2.09677 -1.25562,4.50372 -1.25562,5.3488 0,0.84508 0.87345,1.47344 1.94101,1.39637 1.25291,-0.0904 1.941,0.5752 1.941,1.87777 0,1.56586 -0.64251,1.95867 -2.86819,1.75343 -2.43066,-0.22412 -3.07826,0.31455 -4.24533,3.53135 -0.75741,2.0877 -1.46321,4.22813 -1.56841,4.7565 -0.10534,0.52838 2.05478,1.45816 4.79992,2.06618 3.03906,0.6731 4.99116,1.67312 4.99116,2.55682 0,0.79826 -0.74867,1.54047 -1.66372,1.64938 z m 10.31988,-114.08967 c -1.94946,0.13526 -4.09493,-0.35731 -4.76773,-1.09472 -0.67277,-0.73742 -0.82465,-1.56324 -0.33761,-1.83516 0.48716,-0.27191 2.63262,-0.65287 4.76774,-0.84654 3.22562,-0.29261 3.88203,-0.024 3.88203,1.58912 0,1.4594 -0.8798,2.00232 -3.54453,2.1873 z m 48.42539,0.20752 c -2.15692,0.16516 -4.27816,-0.024 -4.71388,-0.42039 -0.43574,-0.39639 -0.79221,-1.35215 -0.79221,-2.12395 0,-1.02696 1.26414,-1.32009 4.71387,-1.09302 3.2991,0.21713 4.71388,0.76446 4.71388,1.82366 0,1.00331 -1.32185,1.61464 -3.92166,1.8137 z m -48.76288,-6.0059 c -3.81204,0.20463 -4.43659,-0.0517 -4.43659,-1.82065 0,-1.72928 0.71006,-2.05877 4.43659,-2.05877 3.53693,0 4.43659,0.36918 4.43659,1.82064 0,1.41177 -0.99635,1.87413 -4.43659,2.05878 z m 47.69337,0.15639 c -3.69716,0 -4.43658,-0.33631 -4.43658,-2.01791 0,-1.68158 0.73942,-2.0179 4.43658,-2.0179 3.69717,0 4.4366,0.33632 4.4366,2.0179 0,1.6816 -0.73943,2.01791 -4.4366,2.01791 z m -47.97986,-6.24505 c -3.5626,0.26882 -4.1501,0.0189 -4.1501,-1.76568 0,-1.75888 0.69528,-2.07882 4.5179,-2.07882 3.70349,0 4.45165,0.3183 4.15009,1.76567 -0.25719,1.23397 -1.61756,1.85997 -4.51789,2.07883 z m 47.79503,0.19133 c -3.51233,0 -4.25175,-0.35096 -4.25175,-2.01792 0,-1.67235 0.73942,-2.01791 4.3179,-2.01791 2.6812,0 4.54419,0.5363 4.91479,1.41479 0.32824,0.77813 0.29842,1.6862 -0.0663,2.01792 -0.36471,0.33172 -2.57632,0.60312 -4.91477,0.60312 z m -98.63938,206.36702 c -0.45752,0.25004 -7.32521,-2.20229 -10.52788,-4.07927 -3.20267,-1.87697 -8.70711,-5.53184 -8.70711,-6.36921 0,-0.83735 0.72834,-1.52245 1.61852,-1.52245 0.8902,0 6.76898,2.67934 9.53899,4.20134 2.80445,1.54094 8.90936,4.64759 8.90936,5.60172 0,0.94243 -0.37435,1.91796 -0.83188,2.16787 z"
       id="path2020"
       sodipodi:nodetypes="csssscsssssssssssscssssssssssscssssscscsssssscssssscsssssssssscsssscscssssccsssssssssssccsssssssssssssssssssssssssssssssssssssssssssssssssssssssssssssssssssssssscssssssccssssssssssssssssssccsssssscssssssssssssssssssssssssssssscsssssssssssssssscssssssssscsscsssssscssssssccsssssssssssssssssscssccssssssssssssssss" />
    <path
       id="rect4752"
       style="fill:none;stroke:#00ff00;stroke-width:2.66667;stroke-miterlimit:4;stroke-dasharray:none"
       d="m 516.02867,486.64183 h 64 v 24 h -64 z"
       sodipodi:nodetypes="ccccc" />
    <text
       xml:space="preserve"
       style="font-style:normal;font-weight:normal;font-size:19.5556px;line-height:1.25;font-family:sans-serif;letter-spacing:0px;word-spacing:0px;fill:#00ff00;fill-opacity:1;stroke:none;stroke-width:1.33333"
       x="536.79846"
       y="480.80008"
       id="text8017"><tspan
         sodipodi:role="line"
         id="tspan8015"
         x="536.79846"
         y="480.80008"
         style="font-size:19.5556px;fill:#00ff00;fill-opacity:1;stroke-width:1.33333">N<tspan
   style="font-size:14.2223px;fill:#00ff00;fill-opacity:1;stroke-width:1.33333"
   id="tspan14337">2</tspan>%</tspan></text>
    <path
       id="rect4752-3"
       style="fill:none;stroke:#00ff00;stroke-width:2.66667;stroke-miterlimit:4;stroke-dasharray:none"
       d="m 748.02867,486.64183 h 64 v 24 h -64 z"
       sodipodi:nodetypes="ccccc" />
    <path
       id="rect4752-3-5"
       style="fill:none;stroke:#00ff00;stroke-width:2.66667;stroke-miterlimit:4;stroke-dasharray:none"
       d="m 748.02867,593.30909 53.33333,-5.9e-4 v 23.9997 l -53.33333,5.8e-4 z"
       sodipodi:nodetypes="ccccc" />
    <path
       id="rect4752-3-5-1"
       style="fill:none;stroke:#00ff00;stroke-width:2.66667;stroke-miterlimit:4;stroke-dasharray:none"
       d="m 526.69534,593.30909 53.33333,-5.9e-4 v 23.9997 l -53.33333,5.8e-4 z"
       sodipodi:nodetypes="ccccc" />
    <text
       xml:space="preserve"
       style="font-style:normal;font-weight:normal;font-size:19.5556px;line-height:1.25;font-family:sans-serif;letter-spacing:0px;word-spacing:0px;fill:#00ff00;fill-opacity:1;stroke:none;stroke-width:1.33333"
       x="758.13177"
       y="483.46674"
       id="text8017-6"><tspan
         sodipodi:role="line"
         id="tspan8015-7"
         x="758.13177"
         y="483.46674"
         style="font-size:19.5556px;fill:#00ff00;fill-opacity:1;stroke-width:1.33333">N<tspan
   style="font-size:14.2223px;fill:#00ff00;fill-opacity:1;stroke-width:1.33333"
   id="tspan14337-5">2</tspan>%</tspan></text>
    <text
       xml:space="preserve"
       style="font-style:normal;font-weight:normal;font-size:19.5559px;line-height:1.25;font-family:sans-serif;letter-spacing:0px;word-spacing:0px;fill:#00c8ff;fill-opacity:1;stroke:none;stroke-width:1.33335"
       x="759.82538"
       y="587.47278"
       id="text8017-6-6"><tspan
         sodipodi:role="line"
         id="tspan8015-7-2"
         x="759.82538"
         y="587.47278"
         style="font-size:19.5559px;fill:#00c8ff;fill-opacity:1;stroke-width:1.33335">T°</tspan></text>
    <text
       xml:space="preserve"
       style="font-style:normal;font-weight:normal;font-size:19.5559px;line-height:1.25;font-family:sans-serif;letter-spacing:0px;word-spacing:0px;fill:#00c8ff;fill-opacity:1;stroke:none;stroke-width:1.33335"
       x="558.16357"
       y="587.47278"
       id="text8017-6-6-2"><tspan
         sodipodi:role="line"
         id="tspan8015-7-2-7"
         x="558.16357"
         y="587.47278"
         style="font-size:19.5559px;fill:#00c8ff;fill-opacity:1;stroke-width:1.33335">T°</tspan></text>
    <g
       id="g18602"
       transform="matrix(1.3333333,0,0,1.3333333,0.02868539,-0.02482888)">
      <path
         style="fill:none;stroke:#00ff00;stroke-width:2;stroke-linecap:round;stroke-linejoin:round;stroke-miterlimit:4;stroke-dasharray:none;stroke-opacity:1"
         d="m 764.33622,466.5609 -45.87817,-16.09862 -29.10743,17.21985 z"
         id="path15108" />
      <path
         style="fill:none;stroke:#00ff00;stroke-width:2;stroke-linecap:butt;stroke-linejoin:miter;stroke-miterlimit:4;stroke-dasharray:none;stroke-opacity:1"
         d="m 742.03916,459.02971 10.49472,-4.35916 6.13755,1.92042 -2.29165,7.18082"
         id="path15110" />
      <path
         style="fill:none;stroke:#00ff00;stroke-width:2;stroke-linecap:round;stroke-linejoin:round;stroke-miterlimit:4;stroke-dasharray:none;stroke-opacity:1"
         d="m 671.37509,429.69917 0.15634,11.76761 6.20219,-5.99227 z"
         id="path15112"
         sodipodi:nodetypes="cccc" />
      <path
         style="fill:none;stroke:#00ff00;stroke-width:3;stroke-linecap:round;stroke-linejoin:round;stroke-miterlimit:4;stroke-dasharray:none;stroke-opacity:1"
         d="m 710.99482,453.68631 -28.82795,-18.03047 -4.43325,-0.18133"
         id="path15112-3"
         sodipodi:nodetypes="cc" />
    </g>
    <text
       xml:space="preserve"
       style="font-style:normal;font-weight:normal;font-size:19.5556px;line-height:1.25;font-family:sans-serif;letter-spacing:0px;word-spacing:0px;fill:#00ff00;fill-opacity:1;stroke:none;stroke-width:1.33333"
       x="710.20728"
       y="672.8775"
       id="text8017-7"><tspan
         sodipodi:role="line"
         id="tspan8015-5"
         x="710.20728"
         y="672.8775"
         style="font-size:19.5556px;fill:#00ff00;fill-opacity:1;stroke-width:1.33333"><tspan
           style="font-size:14.2223px;fill:#00ff00;fill-opacity:1;stroke-width:1.33333"
           id="tspan14337-3">2</tspan></tspan></text>
    <text
       xml:space="preserve"
       style="font-style:normal;font-weight:normal;font-size:19.5556px;line-height:1.25;font-family:sans-serif;letter-spacing:0px;word-spacing:0px;fill:#00ff00;fill-opacity:1;stroke:none;stroke-width:1.33333"
       x="611.58167"
       y="671.19922"
       id="text8017-7-5"><tspan
         sodipodi:role="line"
         id="tspan8015-5-6"
         x="611.58167"
         y="671.19922"
         style="font-size:19.5556px;fill:#00ff00;fill-opacity:1;stroke-width:1.33333"><tspan
           style="font-size:14.2223px;fill:#00ff00;fill-opacity:1;stroke-width:1.33333"
           id="tspan14337-3-2">2</tspan></tspan></text>
    <text
       xml:space="preserve"
       style="font-style:normal;font-weight:normal;font-size:19.5556px;line-height:1.25;font-family:sans-serif;letter-spacing:0px;word-spacing:0px;fill:#00ff00;fill-opacity:1;stroke:none;stroke-width:1.33333"
       x="592.39319"
       y="695.67603"
       id="text8017-7-9"><tspan
         sodipodi:role="line"
         id="tspan8015-5-1"
         x="592.39319"
         y="695.67603"
         style="font-size:19.5556px;fill:#00ff00;fill-opacity:1;stroke-width:1.33333">0<tspan
   style="font-size:14.2223px;fill:#00ff00;fill-opacity:1;stroke-width:1.33333"
   id="tspan14337-3-27" /></tspan></text>
    <text
       xml:space="preserve"
       style="font-style:normal;font-weight:normal;font-size:19.5556px;line-height:1.25;font-family:sans-serif;letter-spacing:0px;word-spacing:0px;fill:#00ff00;fill-opacity:1;stroke:none;stroke-width:1.33333"
       x="725.37494"
       y="698.21759"
       id="text8017-7-9-0"><tspan
         sodipodi:role="line"
         id="tspan8015-5-1-9"
         x="725.37494"
         y="698.21759"
         style="font-size:19.5556px;fill:#00ff00;fill-opacity:1;stroke-width:1.33333">0<tspan
   style="font-size:14.2223px;fill:#00ff00;fill-opacity:1;stroke-width:1.33333"
   id="tspan14337-3-27-3" /></tspan></text>
    <text
       xml:space="preserve"
       style="font-style:normal;font-weight:normal;font-size:19.5556px;line-height:1.25;font-family:sans-serif;letter-spacing:0px;word-spacing:0px;fill:#00ff00;fill-opacity:1;stroke:none;stroke-width:1.33333"
       x="625.93787"
       y="643.66968"
       id="text8017-7-9-6"><tspan
         sodipodi:role="line"
         id="tspan8015-5-1-0"
         x="625.93787"
         y="643.66968"
         style="font-size:19.5556px;fill:#00ff00;fill-opacity:1;stroke-width:1.33333">4</tspan></text>
    <text
       xml:space="preserve"
       style="font-style:normal;font-weight:normal;font-size:19.5556px;line-height:1.25;font-family:sans-serif;letter-spacing:0px;word-spacing:0px;fill:#00ff00;fill-opacity:1;stroke:none;stroke-width:1.33333"
       x="692.0155"
       y="646.45264"
       id="text8017-7-9-6-2"><tspan
         sodipodi:role="line"
         id="tspan8015-5-1-0-6"
         x="692.0155"
         y="646.45264"
         style="font-size:19.5556px;fill:#00ff00;fill-opacity:1;stroke-width:1.33333">4</tspan></text>
    <text
       xml:space="preserve"
       style="font-style:normal;font-weight:normal;font-size:19.5556px;line-height:1.25;font-family:sans-serif;letter-spacing:0px;word-spacing:0px;fill:#00ff00;fill-opacity:1;stroke:none;stroke-width:1.33333"
       x="680.38904"
       y="616.46857"
       id="text8017-7-9-6-1"><tspan
         sodipodi:role="line"
         id="tspan8015-5-1-0-8"
         x="680.38904"
         y="616.46857"
         style="font-size:19.5556px;fill:#00ff00;fill-opacity:1;stroke-width:1.33333">6</tspan></text>
    <text
       xml:space="preserve"
       style="font-style:normal;font-weight:normal;font-size:19.5556px;line-height:1.25;font-family:sans-serif;letter-spacing:0px;word-spacing:0px;fill:#00ff00;fill-opacity:1;stroke:none;stroke-width:1.33333"
       x="634.8009"
       y="615.85663"
       id="text8017-7-9-6-7"><tspan
         sodipodi:role="line"
         id="tspan8015-5-1-0-9"
         x="634.8009"
         y="615.85663"
         style="font-size:19.5556px;fill:#00ff00;fill-opacity:1;stroke-width:1.33333">6</tspan></text>
    <text
       xml:space="preserve"
       style="font-style:normal;font-weight:normal;font-size:19.5556px;line-height:1.25;font-family:sans-serif;letter-spacing:0px;word-spacing:0px;fill:#00ff00;fill-opacity:1;stroke:none;stroke-width:1.33333"
       x="657.74792"
       y="588.32019"
       id="text8017-7-9-6-20"><tspan
         sodipodi:role="line"
         id="tspan8015-5-1-0-2"
         x="657.74792"
         y="588.32019"
         style="font-size:19.5556px;fill:#00ff00;fill-opacity:1;stroke-width:1.33333">7</tspan></text>
    <text
       xml:space="preserve"
       style="font-style:normal;font-weight:normal;font-size:19.5556px;line-height:1.25;font-family:sans-serif;letter-spacing:0px;word-spacing:0px;fill:#00ff00;fill-opacity:1;stroke:none;stroke-width:1.33333"
       x="657.44196"
       y="561.70166"
       id="text8017-7-9-6-3"><tspan
         sodipodi:role="line"
         id="tspan8015-5-1-0-7"
         x="657.44196"
         y="561.70166"
         style="font-size:19.5556px;fill:#00ff00;fill-opacity:1;stroke-width:1.33333">8</tspan></text>
    <text
       xml:space="preserve"
       style="font-style:normal;font-weight:normal;font-size:19.5556px;line-height:1.25;font-family:sans-serif;letter-spacing:0px;word-spacing:0px;fill:#00ff00;fill-opacity:1;stroke:none;stroke-width:1.33333"
       x="658.35986"
       y="534.47119"
       id="text8017-7-9-6-5"><tspan
         sodipodi:role="line"
         id="tspan8015-5-1-0-92"
         x="658.35986"
         y="534.47119"
         style="font-size:19.5556px;fill:#00ff00;fill-opacity:1;stroke-width:1.33333">9</tspan></text>
    <text
       xml:space="preserve"
       style="font-style:normal;font-weight:normal;font-size:19.5556px;line-height:1.25;font-family:sans-serif;letter-spacing:0px;word-spacing:0px;fill:#00ff00;fill-opacity:1;stroke:none;stroke-width:1.33333"
       x="651.10376"
       y="508.77054"
       id="text8017-7-9-6-28"><tspan
         sodipodi:role="line"
         id="tspan8015-5-1-0-97"
         x="651.10376"
         y="508.77054"
         style="font-size:19.5556px;fill:#00ff00;fill-opacity:1;stroke-width:1.33333">10</tspan></text>
    <path
       style="fill:none;stroke:#fafffa;stroke-width:2.66667;stroke-linecap:butt;stroke-linejoin:miter;stroke-miterlimit:4;stroke-dasharray:none;stroke-opacity:1"
       d="m 692.02867,481.30849 14.66666,-10.66666 v 5.33333 h 16 v 10.66667 h -16 v 5.33333 z"
       id="path17340"
       sodipodi:nodetypes="cccccccc" />
    <path
       style="fill:none;stroke:#ffffff;stroke-width:2.6624;stroke-linecap:butt;stroke-linejoin:miter;stroke-miterlimit:4;stroke-dasharray:none;stroke-opacity:1"
       d="M 635.20055,481.71508 620.4982,471.10829 v 5.3034 h -16.03893 v 10.60678 h 16.03893 v 5.3034 z"
       id="path17340-3"
       sodipodi:nodetypes="cccccccc" />
  </g>
</svg>
