<?xml version="1.0" encoding="UTF-8" standalone="no"?>
<!-- Created with Inkscape (http://www.inkscape.org/) -->

<svg
   version="1.1"
   id="svg2"
   width="1024"
   height="768"
   viewBox="0 0 1024 768.00001"
   sodipodi:docname="to.svg"
   inkscape:version="1.1.2 (0a00cf5339, 2022-02-04)"
   xmlns:inkscape="http://www.inkscape.org/namespaces/inkscape"
   xmlns:sodipodi="http://sodipodi.sourceforge.net/DTD/sodipodi-0.dtd"
   xmlns="http://www.w3.org/2000/svg"
   xmlns:svg="http://www.w3.org/2000/svg">
  <defs
     id="defs6" />
  <sodipodi:namedview
     id="namedview4"
     pagecolor="#5d5d5d"
     bordercolor="#666666"
     borderopacity="1.0"
     inkscape:pageshadow="2"
     inkscape:pageopacity="0"
     inkscape:pagecheckerboard="0"
     showgrid="false"
     inkscape:zoom="0.48377195"
     inkscape:cx="300.76155"
     inkscape:cy="359.6736"
     inkscape:window-width="1920"
     inkscape:window-height="1016"
     inkscape:window-x="0"
     inkscape:window-y="0"
     inkscape:window-maximized="1"
     inkscape:current-layer="g8"
     showguides="true"
     inkscape:guide-bbox="true">
    <sodipodi:guide
       position="768.00389,767.98593"
       orientation="1,0"
       id="guide1913" />
    <sodipodi:guide
       position="1024.0078,383.99781"
       orientation="0,-1"
       id="guide1915" />
  </sodipodi:namedview>
  <g
     inkscape:groupmode="layer"
     inkscape:label="Image"
     id="g8">
    <path
       id="path978"
       style="fill:none;stroke:#fffdff;stroke-width:2;stroke-linecap:round;stroke-linejoin:round;stroke-miterlimit:4;stroke-dasharray:none;stroke-opacity:1"
       d="M 767.99999,334 C 795.22929,334 818,356.77068 818,384 c 0,27.2293 -22.77071,50 -50.00001,50 C 740.77069,434 718,411.2293 718,384 c 0,-27.22932 22.77069,-50 49.99999,-50"
       sodipodi:nodetypes="csssc" />
    <path
       id="path978-6"
       style="fill:none;stroke:#fffdff;stroke-width:2.0002;stroke-linecap:round;stroke-linejoin:round;stroke-miterlimit:4;stroke-dasharray:none;stroke-opacity:1"
       d="m 768,285.0001 c 53.91395,0 98.9999,45.08591 98.9999,98.9999 0,53.91396 -45.08595,98.9999 -98.9999,98.9999 -53.91398,0 -98.9999,-45.08594 -98.9999,-98.9999 0,-53.91399 45.08592,-98.9999 98.9999,-98.9999"
       sodipodi:nodetypes="csssc" />
    <path
       id="path978-3"
       style="fill:#ffffff;fill-opacity:1;stroke:none;stroke-width:0.199999;stroke-linecap:round;stroke-linejoin:round;stroke-miterlimit:4;stroke-dasharray:none;stroke-opacity:1"
       d="m 768,379 c 2.72292,0 5,2.27706 5,5 0,2.72294 -2.27708,5 -5,5 -2.72294,0 -5,-2.27706 -5,-5 0,-2.72294 2.27706,-5 5,-5"
       sodipodi:nodetypes="csssc" />
    <path
       id="path978-6-3"
       style="fill:none;stroke:#fffdff;stroke-width:2.00004;stroke-linecap:round;stroke-linejoin:round;stroke-miterlimit:4;stroke-dasharray:none;stroke-opacity:1"
       d="m 768,235.00002 c 81.14328,0 148.99998,67.85665 148.99998,148.99997 0,81.14328 -67.8567,148.99999 -148.99998,148.99999 -81.14332,0 -148.99998,-67.85669 -148.99998,-148.99999 0,-81.14332 67.85666,-148.99997 148.99998,-148.99997"
       sodipodi:nodetypes="csssc" />
    <path
       style="fill:none;stroke:#ffffff;stroke-width:2;stroke-linecap:butt;stroke-linejoin:miter;stroke-miterlimit:4;stroke-dasharray:none;stroke-opacity:1"
       d="m 512,384.002 512,1.9e-4"
       id="path899"
       sodipodi:nodetypes="cc" />
    <path
       style="fill:none;stroke:#ffffff;stroke-width:2;stroke-linecap:butt;stroke-linejoin:miter;stroke-miterlimit:4;stroke-dasharray:none;stroke-opacity:1"
       d="m 512,49.999905 512,1.9e-4"
       id="path829"
       sodipodi:nodetypes="cc" />
    <path
       style="fill:none;stroke:#ffffff;stroke-width:2;stroke-linecap:butt;stroke-linejoin:miter;stroke-miterlimit:4;stroke-dasharray:none;stroke-opacity:1"
       d="m 512,717.9999 512,1.9e-4"
       id="path1006"
       sodipodi:nodetypes="cc" />
    <path
       style="fill:none;stroke:#ffffff;stroke-width:2;stroke-linecap:butt;stroke-linejoin:miter;stroke-miterlimit:4;stroke-dasharray:none;stroke-opacity:1"
       d="M 768.00019,50 768,718"
       id="path899-6"
       sodipodi:nodetypes="cc" />
    <path
       id="rect986"
       style="fill:#000000;fill-opacity:1;stroke:none;stroke-width:3.3893;stroke-linecap:square"
       d="M 0,0 H 512 V 768 H 0 Z" />
  </g>
</svg>
